<?xml version="1.0" encoding="UTF-8" standalone="no"?><!DOCTYPE svg PUBLIC "-//W3C//DTD SVG 1.1//EN" "http://www.w3.org/Graphics/SVG/1.1/DTD/svg11.dtd"><svg width="100%" height="100%" viewBox="0 0 1440 400" version="1.1" xmlns="http://www.w3.org/2000/svg" xmlns:xlink="http://www.w3.org/1999/xlink" xml:space="preserve" xmlns:serif="http://www.serif.com/" style="fill-rule:evenodd;clip-rule:evenodd;stroke-linecap:round;stroke-linejoin:round;stroke-miterlimit:1.5;"><rect id="Prancheta1" x="0" y="0" width="1440" height="400" style="fill:none;"/><clipPath id="_clip1"><rect id="Prancheta11" serif:id="Prancheta1" x="0" y="0" width="1440" height="400"/></clipPath><g clip-path="url(#_clip1)"><g><path d="M11.64,26.667l11.64,11.64l-11.64,11.64l-11.64,-11.64l11.64,-11.64Z" style="fill:none;stroke:#e7ebe5;stroke-width:1.25px;"/><path d="M11.64,72.865l11.64,11.64l-11.64,11.64l-11.64,-11.64l11.64,-11.64Z" style="fill:none;stroke:#e7ebe5;stroke-width:1.25px;"/><path d="M429.688,26.667l11.64,11.64l-11.64,11.64l-11.64,-11.64l11.64,-11.64Z" style="fill:none;stroke:#e7ebe5;stroke-width:1.25px;"/><path d="M429.688,72.865l11.64,11.64l-11.64,11.64l-11.64,-11.64l11.64,-11.64Z" style="fill:none;stroke:#e7ebe5;stroke-width:1.25px;"/><path d="M847.737,26.667l11.64,11.64l-11.64,11.64l-11.64,-11.64l11.64,-11.64Z" style="fill:none;stroke:#e7ebe5;stroke-width:1.25px;"/><path d="M847.737,72.865l11.64,11.64l-11.64,11.64l-11.64,-11.64l11.64,-11.64Z" style="fill:none;stroke:#e7ebe5;stroke-width:1.25px;"/><path d="M220.664,3.387l11.64,11.64l-11.64,11.64l-11.64,-11.64l11.64,-11.64Z" style="fill:none;stroke:#e7ebe5;stroke-width:1.25px;"/><path d="M220.664,373.333l11.64,11.64l-11.64,11.64l-11.64,-11.64l11.64,-11.64Z" style="fill:none;stroke:#e7ebe5;stroke-width:1.25px;"/><path d="M220.664,49.585l11.64,11.64l-11.64,11.64l-11.64,-11.64l11.64,-11.64Z" style="fill:none;stroke:#e7ebe5;stroke-width:1.25px;"/><path d="M638.713,3.387l11.64,11.64l-11.64,11.64l-11.64,-11.64l11.64,-11.64Z" style="fill:none;stroke:#e7ebe5;stroke-width:1.25px;"/><path d="M638.713,373.333l11.64,11.64l-11.64,11.64l-11.64,-11.64l11.64,-11.64Z" style="fill:none;stroke:#e7ebe5;stroke-width:1.25px;"/><path d="M638.713,49.585l11.64,11.64l-11.64,11.64l-11.64,-11.64l11.64,-11.64Z" style="fill:none;stroke:#e7ebe5;stroke-width:1.25px;"/><path d="M1056.761,3.387l11.64,11.64l-11.64,11.64l-11.64,-11.64l11.64,-11.64Z" style="fill:none;stroke:#e7ebe5;stroke-width:1.25px;"/><path d="M1056.761,373.333l11.64,11.64l-11.64,11.64l-11.64,-11.64l11.64,-11.64Z" style="fill:none;stroke:#e7ebe5;stroke-width:1.25px;"/><path d="M1056.761,49.585l11.64,11.64l-11.64,11.64l-11.64,-11.64l11.64,-11.64Z" style="fill:none;stroke:#e7ebe5;stroke-width:1.25px;"/><path d="M81.315,3.387l11.64,11.64l-11.64,11.64l-11.64,-11.64l11.64,-11.64Z" style="fill:none;stroke:#e7ebe5;stroke-width:1.25px;"/><path d="M81.315,373.333l11.64,11.64l-11.64,11.64l-11.64,-11.64l11.64,-11.64Z" style="fill:none;stroke:#e7ebe5;stroke-width:1.25px;"/><path d="M81.315,49.585l11.64,11.64l-11.64,11.64l-11.64,-11.64l11.64,-11.64Z" style="fill:none;stroke:#e7ebe5;stroke-width:1.25px;"/><path d="M499.363,3.387l11.64,11.64l-11.64,11.64l-11.64,-11.64l11.64,-11.64Z" style="fill:none;stroke:#e7ebe5;stroke-width:1.25px;"/><path d="M499.363,373.333l11.64,11.64l-11.64,11.64l-11.64,-11.64l11.64,-11.64Z" style="fill:none;stroke:#e7ebe5;stroke-width:1.25px;"/><path d="M499.363,49.585l11.64,11.64l-11.64,11.64l-11.64,-11.64l11.64,-11.64Z" style="fill:none;stroke:#e7ebe5;stroke-width:1.25px;"/><path d="M917.412,3.387l11.64,11.64l-11.64,11.64l-11.64,-11.64l11.64,-11.64Z" style="fill:none;stroke:#e7ebe5;stroke-width:1.25px;"/><path d="M917.412,373.333l11.64,11.64l-11.64,11.64l-11.64,-11.64l11.64,-11.64Z" style="fill:none;stroke:#e7ebe5;stroke-width:1.25px;"/><path d="M917.412,49.585l11.64,11.64l-11.64,11.64l-11.64,-11.64l11.64,-11.64Z" style="fill:none;stroke:#e7ebe5;stroke-width:1.25px;"/><path d="M290.339,26.667l11.64,11.64l-11.64,11.64l-11.64,-11.64l11.64,-11.64Z" style="fill:none;stroke:#e7ebe5;stroke-width:1.25px;"/><path d="M290.339,72.865l11.64,11.64l-11.64,11.64l-11.64,-11.64l11.64,-11.64Z" style="fill:none;stroke:#e7ebe5;stroke-width:1.25px;"/><path d="M708.388,26.667l11.64,11.64l-11.64,11.64l-11.64,-11.64l11.64,-11.64Z" style="fill:none;stroke:#e7ebe5;stroke-width:1.25px;"/><path d="M708.388,72.865l11.64,11.64l-11.64,11.64l-11.64,-11.64l11.64,-11.64Z" style="fill:none;stroke:#e7ebe5;stroke-width:1.25px;"/><path d="M1126.436,26.667l11.64,11.64l-11.64,11.64l-11.64,-11.64l11.64,-11.64Z" style="fill:none;stroke:#e7ebe5;stroke-width:1.25px;"/><path d="M1126.436,72.865l11.64,11.64l-11.64,11.64l-11.64,-11.64l11.64,-11.64Z" style="fill:none;stroke:#e7ebe5;stroke-width:1.25px;"/><path d="M1312.236,26.667l11.64,11.64l-11.64,11.64l-11.64,-11.64l11.64,-11.64Z" style="fill:none;stroke:#e7ebe5;stroke-width:1.25px;"/><path d="M1312.236,72.865l11.64,11.64l-11.64,11.64l-11.64,-11.64l11.64,-11.64Z" style="fill:none;stroke:#e7ebe5;stroke-width:1.25px;"/><path d="M150.989,26.667l11.64,11.64l-11.64,11.64l-11.64,-11.64l11.64,-11.64Z" style="fill:none;stroke:#e7ebe5;stroke-width:1.25px;"/><path d="M150.989,72.865l11.64,11.64l-11.64,11.64l-11.64,-11.64l11.64,-11.64Z" style="fill:none;stroke:#e7ebe5;stroke-width:1.25px;"/><path d="M569.038,26.667l11.64,11.64l-11.64,11.64l-11.64,-11.64l11.64,-11.64Z" style="fill:none;stroke:#e7ebe5;stroke-width:1.25px;"/><path d="M569.038,72.865l11.64,11.64l-11.64,11.64l-11.64,-11.64l11.64,-11.64Z" style="fill:none;stroke:#e7ebe5;stroke-width:1.25px;"/><path d="M987.087,26.667l11.64,11.64l-11.64,11.64l-11.64,-11.64l11.64,-11.64Z" style="fill:none;stroke:#e7ebe5;stroke-width:1.25px;"/><path d="M987.087,72.865l11.64,11.64l-11.64,11.64l-11.64,-11.64l11.64,-11.64Z" style="fill:none;stroke:#e7ebe5;stroke-width:1.25px;"/><path d="M360.014,3.387l11.64,11.64l-11.64,11.64l-11.64,-11.64l11.64,-11.64Z" style="fill:none;stroke:#e7ebe5;stroke-width:1.25px;"/><path d="M360.014,373.333l11.64,11.64l-11.64,11.64l-11.64,-11.64l11.64,-11.64Z" style="fill:none;stroke:#e7ebe5;stroke-width:1.25px;"/><path d="M360.014,49.585l11.64,11.64l-11.64,11.64l-11.64,-11.64l11.64,-11.64Z" style="fill:none;stroke:#e7ebe5;stroke-width:1.25px;"/><path d="M778.062,3.387l11.64,11.64l-11.64,11.64l-11.64,-11.64l11.64,-11.64Z" style="fill:none;stroke:#e7ebe5;stroke-width:1.25px;"/><path d="M778.062,373.333l11.64,11.64l-11.64,11.64l-11.64,-11.64l11.64,-11.64Z" style="fill:none;stroke:#e7ebe5;stroke-width:1.25px;"/><path d="M778.062,49.585l11.64,11.64l-11.64,11.64l-11.64,-11.64l11.64,-11.64Z" style="fill:none;stroke:#e7ebe5;stroke-width:1.25px;"/><path d="M1196.111,3.387l11.64,11.64l-11.64,11.64l-11.64,-11.64l11.64,-11.64Z" style="fill:none;stroke:#e7ebe5;stroke-width:1.25px;"/><path d="M1196.111,373.333l11.64,11.64l-11.64,11.64l-11.64,-11.64l11.64,-11.64Z" style="fill:none;stroke:#e7ebe5;stroke-width:1.25px;"/><path d="M1196.111,49.585l11.64,11.64l-11.64,11.64l-11.64,-11.64l11.64,-11.64Z" style="fill:none;stroke:#e7ebe5;stroke-width:1.25px;"/><path d="M1381.91,3.387l11.64,11.64l-11.64,11.64l-11.64,-11.64l11.64,-11.64Z" style="fill:none;stroke:#e7ebe5;stroke-width:1.25px;"/><path d="M1381.91,373.333l11.64,11.64l-11.64,11.64l-11.64,-11.64l11.64,-11.64Z" style="fill:none;stroke:#e7ebe5;stroke-width:1.25px;"/><path d="M1381.91,49.585l11.64,11.64l-11.64,11.64l-11.64,-11.64l11.64,-11.64Z" style="fill:none;stroke:#e7ebe5;stroke-width:1.25px;"/><path d="M34.865,3.387l11.64,11.64l-11.64,11.64l-11.64,-11.64l11.64,-11.64Z" style="fill:none;stroke:#e7ebe5;stroke-width:1.25px;"/><path d="M34.865,373.333l11.64,11.64l-11.64,11.64l-11.64,-11.64l11.64,-11.64Z" style="fill:none;stroke:#e7ebe5;stroke-width:1.25px;"/><path d="M34.865,49.585l11.64,11.64l-11.64,11.64l-11.64,-11.64l11.64,-11.64Z" style="fill:none;stroke:#e7ebe5;stroke-width:1.25px;"/><path d="M452.913,3.387l11.64,11.64l-11.64,11.64l-11.64,-11.64l11.64,-11.64Z" style="fill:none;stroke:#e7ebe5;stroke-width:1.25px;"/><path d="M452.913,373.333l11.64,11.64l-11.64,11.64l-11.64,-11.64l11.64,-11.64Z" style="fill:none;stroke:#e7ebe5;stroke-width:1.25px;"/><path d="M452.913,49.585l11.64,11.64l-11.64,11.64l-11.64,-11.64l11.64,-11.64Z" style="fill:none;stroke:#e7ebe5;stroke-width:1.25px;"/><path d="M870.962,3.387l11.64,11.64l-11.64,11.64l-11.64,-11.64l11.64,-11.64Z" style="fill:none;stroke:#e7ebe5;stroke-width:1.25px;"/><path d="M870.962,373.333l11.64,11.64l-11.64,11.64l-11.64,-11.64l11.64,-11.64Z" style="fill:none;stroke:#e7ebe5;stroke-width:1.25px;"/><path d="M870.962,49.585l11.64,11.64l-11.64,11.64l-11.64,-11.64l11.64,-11.64Z" style="fill:none;stroke:#e7ebe5;stroke-width:1.25px;"/><path d="M243.889,26.667l11.64,11.64l-11.64,11.64l-11.64,-11.64l11.64,-11.64Z" style="fill:none;stroke:#e7ebe5;stroke-width:1.25px;"/><path d="M243.889,72.865l11.64,11.64l-11.64,11.64l-11.64,-11.64l11.64,-11.64Z" style="fill:none;stroke:#e7ebe5;stroke-width:1.25px;"/><path d="M661.938,26.667l11.64,11.64l-11.64,11.64l-11.64,-11.64l11.64,-11.64Z" style="fill:none;stroke:#e7ebe5;stroke-width:1.25px;"/><path d="M661.938,72.865l11.64,11.64l-11.64,11.64l-11.64,-11.64l11.64,-11.64Z" style="fill:none;stroke:#e7ebe5;stroke-width:1.25px;"/><path d="M1079.986,26.667l11.64,11.64l-11.64,11.64l-11.64,-11.64l11.64,-11.64Z" style="fill:none;stroke:#e7ebe5;stroke-width:1.25px;"/><path d="M1079.986,72.865l11.64,11.64l-11.64,11.64l-11.64,-11.64l11.64,-11.64Z" style="fill:none;stroke:#e7ebe5;stroke-width:1.25px;"/><path d="M1265.786,26.667l11.64,11.64l-11.64,11.64l-11.64,-11.64l11.64,-11.64Z" style="fill:none;stroke:#e7ebe5;stroke-width:1.25px;"/><path d="M1265.786,72.865l11.64,11.64l-11.64,11.64l-11.64,-11.64l11.64,-11.64Z" style="fill:none;stroke:#e7ebe5;stroke-width:1.25px;"/><path d="M104.539,26.667l11.64,11.64l-11.64,11.64l-11.64,-11.64l11.64,-11.64Z" style="fill:none;stroke:#e7ebe5;stroke-width:1.25px;"/><path d="M104.539,72.865l11.64,11.64l-11.64,11.64l-11.64,-11.64l11.64,-11.64Z" style="fill:none;stroke:#e7ebe5;stroke-width:1.25px;"/><path d="M522.588,26.667l11.64,11.64l-11.64,11.64l-11.64,-11.64l11.64,-11.64Z" style="fill:none;stroke:#e7ebe5;stroke-width:1.25px;"/><path d="M522.588,72.865l11.64,11.64l-11.64,11.64l-11.64,-11.64l11.64,-11.64Z" style="fill:none;stroke:#e7ebe5;stroke-width:1.25px;"/><path d="M940.637,26.667l11.64,11.64l-11.64,11.64l-11.64,-11.64l11.64,-11.64Z" style="fill:none;stroke:#e7ebe5;stroke-width:1.25px;"/><path d="M940.637,72.865l11.64,11.64l-11.64,11.64l-11.64,-11.64l11.64,-11.64Z" style="fill:none;stroke:#e7ebe5;stroke-width:1.25px;"/><path d="M313.564,3.387l11.64,11.64l-11.64,11.64l-11.64,-11.64l11.64,-11.64Z" style="fill:none;stroke:#e7ebe5;stroke-width:1.25px;"/><path d="M313.564,373.333l11.64,11.64l-11.64,11.64l-11.64,-11.64l11.64,-11.64Z" style="fill:none;stroke:#e7ebe5;stroke-width:1.25px;"/><path d="M313.564,49.585l11.64,11.64l-11.64,11.64l-11.64,-11.64l11.64,-11.64Z" style="fill:none;stroke:#e7ebe5;stroke-width:1.25px;"/><path d="M731.612,3.387l11.64,11.64l-11.64,11.64l-11.64,-11.64l11.64,-11.64Z" style="fill:none;stroke:#e7ebe5;stroke-width:1.25px;"/><path d="M731.612,373.333l11.64,11.64l-11.64,11.64l-11.64,-11.64l11.64,-11.64Z" style="fill:none;stroke:#e7ebe5;stroke-width:1.25px;"/><path d="M731.612,49.585l11.64,11.64l-11.64,11.64l-11.64,-11.64l11.64,-11.64Z" style="fill:none;stroke:#e7ebe5;stroke-width:1.25px;"/><path d="M1149.661,3.387l11.64,11.64l-11.64,11.64l-11.64,-11.64l11.64,-11.64Z" style="fill:none;stroke:#e7ebe5;stroke-width:1.25px;"/><path d="M1149.661,373.333l11.64,11.64l-11.64,11.64l-11.64,-11.64l11.64,-11.64Z" style="fill:none;stroke:#e7ebe5;stroke-width:1.25px;"/><path d="M1149.661,49.585l11.64,11.64l-11.64,11.64l-11.64,-11.64l11.64,-11.64Z" style="fill:none;stroke:#e7ebe5;stroke-width:1.25px;"/><path d="M1335.461,3.387l11.64,11.64l-11.64,11.64l-11.64,-11.64l11.64,-11.64Z" style="fill:none;stroke:#e7ebe5;stroke-width:1.25px;"/><path d="M1335.461,373.333l11.64,11.64l-11.64,11.64l-11.64,-11.64l11.64,-11.64Z" style="fill:none;stroke:#e7ebe5;stroke-width:1.25px;"/><path d="M1335.461,49.585l11.64,11.64l-11.64,11.64l-11.64,-11.64l11.64,-11.64Z" style="fill:none;stroke:#e7ebe5;stroke-width:1.25px;"/><path d="M174.214,3.387l11.64,11.64l-11.64,11.64l-11.64,-11.64l11.64,-11.64Z" style="fill:none;stroke:#e7ebe5;stroke-width:1.25px;"/><path d="M174.214,373.333l11.64,11.64l-11.64,11.64l-11.64,-11.64l11.64,-11.64Z" style="fill:none;stroke:#e7ebe5;stroke-width:1.25px;"/><path d="M174.214,49.585l11.64,11.64l-11.64,11.64l-11.64,-11.64l11.64,-11.64Z" style="fill:none;stroke:#e7ebe5;stroke-width:1.25px;"/><path d="M592.263,3.387l11.64,11.64l-11.64,11.64l-11.64,-11.64l11.64,-11.64Z" style="fill:none;stroke:#e7ebe5;stroke-width:1.25px;"/><path d="M592.263,373.333l11.64,11.64l-11.64,11.64l-11.64,-11.64l11.64,-11.64Z" style="fill:none;stroke:#e7ebe5;stroke-width:1.25px;"/><path d="M592.263,49.585l11.64,11.64l-11.64,11.64l-11.64,-11.64l11.64,-11.64Z" style="fill:none;stroke:#e7ebe5;stroke-width:1.25px;"/><path d="M1010.312,3.387l11.64,11.64l-11.64,11.64l-11.64,-11.64l11.64,-11.64Z" style="fill:none;stroke:#e7ebe5;stroke-width:1.25px;"/><path d="M1010.312,373.333l11.64,11.64l-11.64,11.64l-11.64,-11.64l11.64,-11.64Z" style="fill:none;stroke:#e7ebe5;stroke-width:1.25px;"/><path d="M1010.312,49.585l11.64,11.64l-11.64,11.64l-11.64,-11.64l11.64,-11.64Z" style="fill:none;stroke:#e7ebe5;stroke-width:1.25px;"/><path d="M383.239,26.667l11.64,11.64l-11.64,11.64l-11.64,-11.64l11.64,-11.64Z" style="fill:none;stroke:#e7ebe5;stroke-width:1.25px;"/><path d="M383.239,72.865l11.64,11.64l-11.64,11.64l-11.64,-11.64l11.64,-11.64Z" style="fill:none;stroke:#e7ebe5;stroke-width:1.25px;"/><path d="M801.287,26.667l11.64,11.64l-11.64,11.64l-11.64,-11.64l11.64,-11.64Z" style="fill:none;stroke:#e7ebe5;stroke-width:1.25px;"/><path d="M801.287,72.865l11.64,11.64l-11.64,11.64l-11.64,-11.64l11.64,-11.64Z" style="fill:none;stroke:#e7ebe5;stroke-width:1.25px;"/><path d="M1219.336,26.667l11.64,11.64l-11.64,11.64l-11.64,-11.64l11.64,-11.64Z" style="fill:none;stroke:#e7ebe5;stroke-width:1.25px;"/><path d="M1219.336,72.865l11.64,11.64l-11.64,11.64l-11.64,-11.64l11.64,-11.64Z" style="fill:none;stroke:#e7ebe5;stroke-width:1.25px;"/><path d="M1405.135,26.667l11.64,11.64l-11.64,11.64l-11.64,-11.64l11.64,-11.64Z" style="fill:none;stroke:#e7ebe5;stroke-width:1.25px;"/><path d="M1405.135,72.865l11.64,11.64l-11.64,11.64l-11.64,-11.64l11.64,-11.64Z" style="fill:none;stroke:#e7ebe5;stroke-width:1.25px;"/><path d="M58.09,26.667l11.64,11.64l-11.64,11.64l-11.64,-11.64l11.64,-11.64Z" style="fill:none;stroke:#e7ebe5;stroke-width:1.25px;"/><path d="M58.09,72.865l11.64,11.64l-11.64,11.64l-11.64,-11.64l11.64,-11.64Z" style="fill:none;stroke:#e7ebe5;stroke-width:1.25px;"/><path d="M476.138,26.667l11.64,11.64l-11.64,11.64l-11.64,-11.64l11.64,-11.64Z" style="fill:none;stroke:#e7ebe5;stroke-width:1.25px;"/><path d="M476.138,72.865l11.64,11.64l-11.64,11.64l-11.64,-11.64l11.64,-11.64Z" style="fill:none;stroke:#e7ebe5;stroke-width:1.25px;"/><path d="M894.187,26.667l11.64,11.64l-11.64,11.64l-11.64,-11.64l11.64,-11.64Z" style="fill:none;stroke:#e7ebe5;stroke-width:1.25px;"/><path d="M894.187,72.865l11.64,11.64l-11.64,11.64l-11.64,-11.64l11.64,-11.64Z" style="fill:none;stroke:#e7ebe5;stroke-width:1.25px;"/><path d="M267.114,3.387l11.64,11.64l-11.64,11.64l-11.64,-11.64l11.64,-11.64Z" style="fill:none;stroke:#e7ebe5;stroke-width:1.25px;"/><path d="M267.114,373.333l11.64,11.64l-11.64,11.64l-11.64,-11.64l11.64,-11.64Z" style="fill:none;stroke:#e7ebe5;stroke-width:1.25px;"/><path d="M267.114,49.585l11.64,11.64l-11.64,11.64l-11.64,-11.64l11.64,-11.64Z" style="fill:none;stroke:#e7ebe5;stroke-width:1.25px;"/><path d="M685.163,3.387l11.64,11.64l-11.64,11.64l-11.64,-11.64l11.64,-11.64Z" style="fill:none;stroke:#e7ebe5;stroke-width:1.25px;"/><path d="M685.163,373.333l11.64,11.64l-11.64,11.64l-11.64,-11.64l11.64,-11.64Z" style="fill:none;stroke:#e7ebe5;stroke-width:1.25px;"/><path d="M685.163,49.585l11.64,11.64l-11.64,11.64l-11.64,-11.64l11.64,-11.64Z" style="fill:none;stroke:#e7ebe5;stroke-width:1.25px;"/><path d="M1103.211,3.387l11.64,11.64l-11.64,11.64l-11.64,-11.64l11.64,-11.64Z" style="fill:none;stroke:#e7ebe5;stroke-width:1.25px;"/><path d="M1103.211,373.333l11.64,11.64l-11.64,11.64l-11.64,-11.64l11.64,-11.64Z" style="fill:none;stroke:#e7ebe5;stroke-width:1.25px;"/><path d="M1103.211,49.585l11.64,11.64l-11.64,11.64l-11.64,-11.64l11.64,-11.64Z" style="fill:none;stroke:#e7ebe5;stroke-width:1.25px;"/><path d="M1289.011,3.387l11.64,11.64l-11.64,11.64l-11.64,-11.64l11.64,-11.64Z" style="fill:none;stroke:#e7ebe5;stroke-width:1.25px;"/><path d="M1289.011,373.333l11.64,11.64l-11.64,11.64l-11.64,-11.64l11.64,-11.64Z" style="fill:none;stroke:#e7ebe5;stroke-width:1.25px;"/><path d="M1289.011,49.585l11.64,11.64l-11.64,11.64l-11.64,-11.64l11.64,-11.64Z" style="fill:none;stroke:#e7ebe5;stroke-width:1.25px;"/><path d="M127.764,3.387l11.64,11.64l-11.64,11.64l-11.64,-11.64l11.64,-11.64Z" style="fill:none;stroke:#e7ebe5;stroke-width:1.25px;"/><path d="M127.764,373.333l11.64,11.64l-11.64,11.64l-11.64,-11.64l11.64,-11.64Z" style="fill:none;stroke:#e7ebe5;stroke-width:1.25px;"/><path d="M127.764,49.585l11.64,11.64l-11.64,11.64l-11.64,-11.64l11.64,-11.64Z" style="fill:none;stroke:#e7ebe5;stroke-width:1.25px;"/><path d="M545.813,3.387l11.64,11.64l-11.64,11.64l-11.64,-11.64l11.64,-11.64Z" style="fill:none;stroke:#e7ebe5;stroke-width:1.25px;"/><path d="M545.813,373.333l11.64,11.64l-11.64,11.64l-11.64,-11.64l11.64,-11.64Z" style="fill:none;stroke:#e7ebe5;stroke-width:1.25px;"/><path d="M545.813,49.585l11.64,11.64l-11.64,11.64l-11.64,-11.64l11.64,-11.64Z" style="fill:none;stroke:#e7ebe5;stroke-width:1.25px;"/><path d="M963.862,3.387l11.64,11.64l-11.64,11.64l-11.64,-11.64l11.64,-11.64Z" style="fill:none;stroke:#e7ebe5;stroke-width:1.25px;"/><path d="M963.862,373.333l11.64,11.64l-11.64,11.64l-11.64,-11.64l11.64,-11.64Z" style="fill:none;stroke:#e7ebe5;stroke-width:1.25px;"/><path d="M963.862,49.585l11.64,11.64l-11.64,11.64l-11.64,-11.64l11.64,-11.64Z" style="fill:none;stroke:#e7ebe5;stroke-width:1.25px;"/><path d="M336.789,26.667l11.64,11.64l-11.64,11.64l-11.64,-11.64l11.64,-11.64Z" style="fill:none;stroke:#e7ebe5;stroke-width:1.25px;"/><path d="M336.789,72.865l11.64,11.64l-11.64,11.64l-11.64,-11.64l11.64,-11.64Z" style="fill:none;stroke:#e7ebe5;stroke-width:1.25px;"/><path d="M754.837,26.667l11.64,11.64l-11.64,11.64l-11.64,-11.64l11.64,-11.64Z" style="fill:none;stroke:#e7ebe5;stroke-width:1.25px;"/><path d="M754.837,72.865l11.64,11.64l-11.64,11.64l-11.64,-11.64l11.64,-11.64Z" style="fill:none;stroke:#e7ebe5;stroke-width:1.25px;"/><path d="M1172.886,26.667l11.64,11.64l-11.64,11.64l-11.64,-11.64l11.64,-11.64Z" style="fill:none;stroke:#e7ebe5;stroke-width:1.25px;"/><path d="M1172.886,72.865l11.64,11.64l-11.64,11.64l-11.64,-11.64l11.64,-11.64Z" style="fill:none;stroke:#e7ebe5;stroke-width:1.25px;"/><path d="M1358.685,26.667l11.64,11.64l-11.64,11.64l-11.64,-11.64l11.64,-11.64Z" style="fill:none;stroke:#e7ebe5;stroke-width:1.25px;"/><path d="M1358.685,72.865l11.64,11.64l-11.64,11.64l-11.64,-11.64l11.64,-11.64Z" style="fill:none;stroke:#e7ebe5;stroke-width:1.25px;"/><path d="M197.439,26.667l11.64,11.64l-11.64,11.64l-11.64,-11.64l11.64,-11.64Z" style="fill:none;stroke:#e7ebe5;stroke-width:1.25px;"/><path d="M197.439,72.865l11.64,11.64l-11.64,11.64l-11.64,-11.64l11.64,-11.64Z" style="fill:none;stroke:#e7ebe5;stroke-width:1.25px;"/><path d="M615.488,26.667l11.64,11.64l-11.64,11.64l-11.64,-11.64l11.64,-11.64Z" style="fill:none;stroke:#e7ebe5;stroke-width:1.25px;"/><path d="M615.488,72.865l11.64,11.64l-11.64,11.64l-11.64,-11.64l11.64,-11.64Z" style="fill:none;stroke:#e7ebe5;stroke-width:1.25px;"/><path d="M1033.537,26.667l11.64,11.64l-11.64,11.64l-11.64,-11.64l11.64,-11.64Z" style="fill:none;stroke:#e7ebe5;stroke-width:1.25px;"/><path d="M1033.537,72.865l11.64,11.64l-11.64,11.64l-11.64,-11.64l11.64,-11.64Z" style="fill:none;stroke:#e7ebe5;stroke-width:1.25px;"/><path d="M406.463,3.387l11.64,11.64l-11.64,11.64l-11.64,-11.64l11.64,-11.64Z" style="fill:none;stroke:#e7ebe5;stroke-width:1.25px;"/><path d="M406.463,373.333l11.64,11.64l-11.64,11.64l-11.64,-11.64l11.64,-11.64Z" style="fill:none;stroke:#e7ebe5;stroke-width:1.25px;"/><path d="M406.463,49.585l11.64,11.64l-11.64,11.64l-11.64,-11.64l11.64,-11.64Z" style="fill:none;stroke:#e7ebe5;stroke-width:1.25px;"/><path d="M824.512,3.387l11.64,11.64l-11.64,11.64l-11.64,-11.64l11.64,-11.64Z" style="fill:none;stroke:#e7ebe5;stroke-width:1.25px;"/><path d="M824.512,373.333l11.64,11.64l-11.64,11.64l-11.64,-11.64l11.64,-11.64Z" style="fill:none;stroke:#e7ebe5;stroke-width:1.25px;"/><path d="M824.512,49.585l11.64,11.64l-11.64,11.64l-11.64,-11.64l11.64,-11.64Z" style="fill:none;stroke:#e7ebe5;stroke-width:1.25px;"/><path d="M1242.561,3.387l11.64,11.64l-11.64,11.64l-11.64,-11.64l11.64,-11.64Z" style="fill:none;stroke:#e7ebe5;stroke-width:1.25px;"/><path d="M1242.561,373.333l11.64,11.64l-11.64,11.64l-11.64,-11.64l11.64,-11.64Z" style="fill:none;stroke:#e7ebe5;stroke-width:1.25px;"/><path d="M1242.561,49.585l11.64,11.64l-11.64,11.64l-11.64,-11.64l11.64,-11.64Z" style="fill:none;stroke:#e7ebe5;stroke-width:1.25px;"/><path d="M1428.36,3.387l11.64,11.64l-11.64,11.64l-11.64,-11.64l11.64,-11.64Z" style="fill:none;stroke:#e7ebe5;stroke-width:1.25px;"/><path d="M1428.36,373.333l11.64,11.64l-11.64,11.64l-11.64,-11.64l11.64,-11.64Z" style="fill:none;stroke:#e7ebe5;stroke-width:1.25px;"/><path d="M1428.36,49.585l11.64,11.64l-11.64,11.64l-11.64,-11.64l11.64,-11.64Z" style="fill:none;stroke:#e7ebe5;stroke-width:1.25px;"/><path d="M11.64,119.063l11.64,11.64l-11.64,11.64l-11.64,-11.64l11.64,-11.64Z" style="fill:none;stroke:#e7ebe5;stroke-width:1.25px;"/><path d="M429.688,119.063l11.64,11.64l-11.64,11.64l-11.64,-11.64l11.64,-11.64Z" style="fill:none;stroke:#e7ebe5;stroke-width:1.25px;"/><path d="M847.737,119.063l11.64,11.64l-11.64,11.64l-11.64,-11.64l11.64,-11.64Z" style="fill:none;stroke:#e7ebe5;stroke-width:1.25px;"/><path d="M220.664,95.784l11.64,11.64l-11.64,11.64l-11.64,-11.64l11.64,-11.64Z" style="fill:none;stroke:#e7ebe5;stroke-width:1.25px;"/><path d="M638.713,95.784l11.64,11.64l-11.64,11.64l-11.64,-11.64l11.64,-11.64Z" style="fill:none;stroke:#e7ebe5;stroke-width:1.25px;"/><path d="M1056.761,95.784l11.64,11.64l-11.64,11.64l-11.64,-11.64l11.64,-11.64Z" style="fill:none;stroke:#e7ebe5;stroke-width:1.25px;"/><path d="M81.315,95.784l11.64,11.64l-11.64,11.64l-11.64,-11.64l11.64,-11.64Z" style="fill:none;stroke:#e7ebe5;stroke-width:1.25px;"/><path d="M499.363,95.784l11.64,11.64l-11.64,11.64l-11.64,-11.64l11.64,-11.64Z" style="fill:none;stroke:#e7ebe5;stroke-width:1.25px;"/><path d="M917.412,95.784l11.64,11.64l-11.64,11.64l-11.64,-11.64l11.64,-11.64Z" style="fill:none;stroke:#e7ebe5;stroke-width:1.25px;"/><path d="M290.339,119.063l11.64,11.64l-11.64,11.64l-11.64,-11.64l11.64,-11.64Z" style="fill:none;stroke:#e7ebe5;stroke-width:1.25px;"/><path d="M708.388,119.063l11.64,11.64l-11.64,11.64l-11.64,-11.64l11.64,-11.64Z" style="fill:none;stroke:#e7ebe5;stroke-width:1.25px;"/><path d="M1126.436,119.063l11.64,11.64l-11.64,11.64l-11.64,-11.64l11.64,-11.64Z" style="fill:none;stroke:#e7ebe5;stroke-width:1.25px;"/><path d="M1312.236,119.063l11.64,11.64l-11.64,11.64l-11.64,-11.64l11.64,-11.64Z" style="fill:none;stroke:#e7ebe5;stroke-width:1.25px;"/><path d="M150.989,119.063l11.64,11.64l-11.64,11.64l-11.64,-11.64l11.64,-11.64Z" style="fill:none;stroke:#e7ebe5;stroke-width:1.25px;"/><path d="M569.038,119.063l11.64,11.64l-11.64,11.64l-11.64,-11.64l11.64,-11.64Z" style="fill:none;stroke:#e7ebe5;stroke-width:1.25px;"/><path d="M987.087,119.063l11.64,11.64l-11.64,11.64l-11.64,-11.64l11.64,-11.64Z" style="fill:none;stroke:#e7ebe5;stroke-width:1.25px;"/><path d="M360.014,95.784l11.64,11.64l-11.64,11.64l-11.64,-11.64l11.64,-11.64Z" style="fill:none;stroke:#e7ebe5;stroke-width:1.25px;"/><path d="M778.062,95.784l11.64,11.64l-11.64,11.64l-11.64,-11.64l11.64,-11.64Z" style="fill:none;stroke:#e7ebe5;stroke-width:1.25px;"/><path d="M1196.111,95.784l11.64,11.64l-11.64,11.64l-11.64,-11.64l11.64,-11.64Z" style="fill:none;stroke:#e7ebe5;stroke-width:1.25px;"/><path d="M1381.91,95.784l11.64,11.64l-11.64,11.64l-11.64,-11.64l11.64,-11.64Z" style="fill:none;stroke:#e7ebe5;stroke-width:1.25px;"/><path d="M34.865,95.784l11.64,11.64l-11.64,11.64l-11.64,-11.64l11.64,-11.64Z" style="fill:none;stroke:#e7ebe5;stroke-width:1.25px;"/><path d="M452.913,95.784l11.64,11.64l-11.64,11.64l-11.64,-11.64l11.64,-11.64Z" style="fill:none;stroke:#e7ebe5;stroke-width:1.25px;"/><path d="M870.962,95.784l11.64,11.64l-11.64,11.64l-11.64,-11.64l11.64,-11.64Z" style="fill:none;stroke:#e7ebe5;stroke-width:1.25px;"/><path d="M243.889,119.063l11.64,11.64l-11.64,11.64l-11.64,-11.64l11.64,-11.64Z" style="fill:none;stroke:#e7ebe5;stroke-width:1.25px;"/><path d="M661.938,119.063l11.64,11.64l-11.64,11.64l-11.64,-11.64l11.64,-11.64Z" style="fill:none;stroke:#e7ebe5;stroke-width:1.25px;"/><path d="M1079.986,119.063l11.64,11.64l-11.64,11.64l-11.64,-11.64l11.64,-11.64Z" style="fill:none;stroke:#e7ebe5;stroke-width:1.25px;"/><path d="M1265.786,119.063l11.64,11.64l-11.64,11.64l-11.64,-11.64l11.64,-11.64Z" style="fill:none;stroke:#e7ebe5;stroke-width:1.25px;"/><path d="M104.539,119.063l11.64,11.64l-11.64,11.64l-11.64,-11.64l11.64,-11.64Z" style="fill:none;stroke:#e7ebe5;stroke-width:1.25px;"/><path d="M522.588,119.063l11.64,11.64l-11.64,11.64l-11.64,-11.64l11.64,-11.64Z" style="fill:none;stroke:#e7ebe5;stroke-width:1.25px;"/><path d="M940.637,119.063l11.64,11.64l-11.64,11.64l-11.64,-11.64l11.64,-11.64Z" style="fill:none;stroke:#e7ebe5;stroke-width:1.25px;"/><path d="M313.564,95.784l11.64,11.64l-11.64,11.64l-11.64,-11.64l11.64,-11.64Z" style="fill:none;stroke:#e7ebe5;stroke-width:1.25px;"/><path d="M731.612,95.784l11.64,11.64l-11.64,11.64l-11.64,-11.64l11.64,-11.64Z" style="fill:none;stroke:#e7ebe5;stroke-width:1.25px;"/><path d="M1149.661,95.784l11.64,11.64l-11.64,11.64l-11.64,-11.64l11.64,-11.64Z" style="fill:none;stroke:#e7ebe5;stroke-width:1.25px;"/><path d="M1335.461,95.784l11.64,11.64l-11.64,11.64l-11.64,-11.64l11.64,-11.64Z" style="fill:none;stroke:#e7ebe5;stroke-width:1.25px;"/><path d="M174.214,95.784l11.64,11.64l-11.64,11.64l-11.64,-11.64l11.64,-11.64Z" style="fill:none;stroke:#e7ebe5;stroke-width:1.25px;"/><path d="M592.263,95.784l11.64,11.64l-11.64,11.64l-11.64,-11.64l11.64,-11.64Z" style="fill:none;stroke:#e7ebe5;stroke-width:1.25px;"/><path d="M1010.312,95.784l11.64,11.64l-11.64,11.64l-11.64,-11.64l11.64,-11.64Z" style="fill:none;stroke:#e7ebe5;stroke-width:1.25px;"/><path d="M383.239,119.063l11.64,11.64l-11.64,11.64l-11.64,-11.64l11.64,-11.64Z" style="fill:none;stroke:#e7ebe5;stroke-width:1.25px;"/><path d="M801.287,119.063l11.64,11.64l-11.64,11.64l-11.64,-11.64l11.64,-11.64Z" style="fill:none;stroke:#e7ebe5;stroke-width:1.25px;"/><path d="M1219.336,119.063l11.64,11.64l-11.64,11.64l-11.64,-11.64l11.64,-11.64Z" style="fill:none;stroke:#e7ebe5;stroke-width:1.25px;"/><path d="M1405.135,119.063l11.64,11.64l-11.64,11.64l-11.64,-11.64l11.64,-11.64Z" style="fill:none;stroke:#e7ebe5;stroke-width:1.25px;"/><path d="M58.09,119.063l11.64,11.64l-11.64,11.64l-11.64,-11.64l11.64,-11.64Z" style="fill:none;stroke:#e7ebe5;stroke-width:1.25px;"/><path d="M476.138,119.063l11.64,11.64l-11.64,11.64l-11.64,-11.64l11.64,-11.64Z" style="fill:none;stroke:#e7ebe5;stroke-width:1.25px;"/><path d="M894.187,119.063l11.64,11.64l-11.64,11.64l-11.64,-11.64l11.64,-11.64Z" style="fill:none;stroke:#e7ebe5;stroke-width:1.25px;"/><path d="M267.114,95.784l11.64,11.64l-11.64,11.64l-11.64,-11.64l11.64,-11.64Z" style="fill:none;stroke:#e7ebe5;stroke-width:1.25px;"/><path d="M685.163,95.784l11.64,11.64l-11.64,11.64l-11.64,-11.64l11.64,-11.64Z" style="fill:none;stroke:#e7ebe5;stroke-width:1.25px;"/><path d="M1103.211,95.784l11.64,11.64l-11.64,11.64l-11.64,-11.64l11.64,-11.64Z" style="fill:none;stroke:#e7ebe5;stroke-width:1.25px;"/><path d="M1289.011,95.784l11.64,11.64l-11.64,11.64l-11.64,-11.64l11.64,-11.64Z" style="fill:none;stroke:#e7ebe5;stroke-width:1.25px;"/><path d="M127.764,95.784l11.64,11.64l-11.64,11.64l-11.64,-11.64l11.64,-11.64Z" style="fill:none;stroke:#e7ebe5;stroke-width:1.25px;"/><path d="M545.813,95.784l11.64,11.64l-11.64,11.64l-11.64,-11.64l11.64,-11.64Z" style="fill:none;stroke:#e7ebe5;stroke-width:1.25px;"/><path d="M963.862,95.784l11.64,11.64l-11.64,11.64l-11.64,-11.64l11.64,-11.64Z" style="fill:none;stroke:#e7ebe5;stroke-width:1.25px;"/><path d="M336.789,119.063l11.64,11.64l-11.64,11.64l-11.64,-11.64l11.64,-11.64Z" style="fill:none;stroke:#e7ebe5;stroke-width:1.25px;"/><path d="M754.837,119.063l11.64,11.64l-11.64,11.64l-11.64,-11.64l11.64,-11.64Z" style="fill:none;stroke:#e7ebe5;stroke-width:1.25px;"/><path d="M1172.886,119.063l11.64,11.64l-11.64,11.64l-11.64,-11.64l11.64,-11.64Z" style="fill:none;stroke:#e7ebe5;stroke-width:1.25px;"/><path d="M1358.685,119.063l11.64,11.64l-11.64,11.64l-11.64,-11.64l11.64,-11.64Z" style="fill:none;stroke:#e7ebe5;stroke-width:1.25px;"/><path d="M197.439,119.063l11.64,11.64l-11.64,11.64l-11.64,-11.64l11.64,-11.64Z" style="fill:none;stroke:#e7ebe5;stroke-width:1.25px;"/><path d="M615.488,119.063l11.64,11.64l-11.64,11.64l-11.64,-11.64l11.64,-11.64Z" style="fill:none;stroke:#e7ebe5;stroke-width:1.25px;"/><path d="M1033.537,119.063l11.64,11.64l-11.64,11.64l-11.64,-11.64l11.64,-11.64Z" style="fill:none;stroke:#e7ebe5;stroke-width:1.25px;"/><path d="M406.463,95.784l11.64,11.64l-11.64,11.64l-11.64,-11.64l11.64,-11.64Z" style="fill:none;stroke:#e7ebe5;stroke-width:1.25px;"/><path d="M824.512,95.784l11.64,11.64l-11.64,11.64l-11.64,-11.64l11.64,-11.64Z" style="fill:none;stroke:#e7ebe5;stroke-width:1.25px;"/><path d="M1242.561,95.784l11.64,11.64l-11.64,11.64l-11.64,-11.64l11.64,-11.64Z" style="fill:none;stroke:#e7ebe5;stroke-width:1.25px;"/><path d="M1428.36,95.784l11.64,11.64l-11.64,11.64l-11.64,-11.64l11.64,-11.64Z" style="fill:none;stroke:#e7ebe5;stroke-width:1.25px;"/><path d="M11.64,165.261l11.64,11.64l-11.64,11.64l-11.64,-11.64l11.64,-11.64Z" style="fill:none;stroke:#e7ebe5;stroke-width:1.25px;"/><path d="M429.688,165.261l11.64,11.64l-11.64,11.64l-11.64,-11.64l11.64,-11.64Z" style="fill:none;stroke:#e7ebe5;stroke-width:1.25px;"/><path d="M847.737,165.261l11.64,11.64l-11.64,11.64l-11.64,-11.64l11.64,-11.64Z" style="fill:none;stroke:#e7ebe5;stroke-width:1.25px;"/><path d="M220.664,141.982l11.64,11.64l-11.64,11.64l-11.64,-11.64l11.64,-11.64Z" style="fill:none;stroke:#e7ebe5;stroke-width:1.25px;"/><path d="M638.713,141.982l11.64,11.64l-11.64,11.64l-11.64,-11.64l11.64,-11.64Z" style="fill:none;stroke:#e7ebe5;stroke-width:1.25px;"/><path d="M1056.761,141.982l11.64,11.64l-11.64,11.64l-11.64,-11.64l11.64,-11.64Z" style="fill:none;stroke:#e7ebe5;stroke-width:1.25px;"/><path d="M81.315,141.982l11.64,11.64l-11.64,11.64l-11.64,-11.64l11.64,-11.64Z" style="fill:none;stroke:#e7ebe5;stroke-width:1.25px;"/><path d="M499.363,141.982l11.64,11.64l-11.64,11.64l-11.64,-11.64l11.64,-11.64Z" style="fill:none;stroke:#e7ebe5;stroke-width:1.25px;"/><path d="M917.412,141.982l11.64,11.64l-11.64,11.64l-11.64,-11.64l11.64,-11.64Z" style="fill:none;stroke:#e7ebe5;stroke-width:1.25px;"/><path d="M290.339,165.261l11.64,11.64l-11.64,11.64l-11.64,-11.64l11.64,-11.64Z" style="fill:none;stroke:#e7ebe5;stroke-width:1.25px;"/><path d="M708.388,165.261l11.64,11.64l-11.64,11.64l-11.64,-11.64l11.64,-11.64Z" style="fill:none;stroke:#e7ebe5;stroke-width:1.25px;"/><path d="M1126.436,165.261l11.64,11.64l-11.64,11.64l-11.64,-11.64l11.64,-11.64Z" style="fill:none;stroke:#e7ebe5;stroke-width:1.25px;"/><path d="M1312.236,165.261l11.64,11.64l-11.64,11.64l-11.64,-11.64l11.64,-11.64Z" style="fill:none;stroke:#e7ebe5;stroke-width:1.25px;"/><path d="M150.989,165.261l11.64,11.64l-11.64,11.64l-11.64,-11.64l11.64,-11.64Z" style="fill:none;stroke:#e7ebe5;stroke-width:1.25px;"/><path d="M569.038,165.261l11.64,11.64l-11.64,11.64l-11.64,-11.64l11.64,-11.64Z" style="fill:none;stroke:#e7ebe5;stroke-width:1.25px;"/><path d="M987.087,165.261l11.64,11.64l-11.64,11.64l-11.64,-11.64l11.64,-11.64Z" style="fill:none;stroke:#e7ebe5;stroke-width:1.25px;"/><path d="M360.014,141.982l11.64,11.64l-11.64,11.64l-11.64,-11.64l11.64,-11.64Z" style="fill:none;stroke:#e7ebe5;stroke-width:1.25px;"/><path d="M778.062,141.982l11.64,11.64l-11.64,11.64l-11.64,-11.64l11.64,-11.64Z" style="fill:none;stroke:#e7ebe5;stroke-width:1.25px;"/><path d="M1196.111,141.982l11.64,11.64l-11.64,11.64l-11.64,-11.64l11.64,-11.64Z" style="fill:none;stroke:#e7ebe5;stroke-width:1.25px;"/><path d="M1381.91,141.982l11.64,11.64l-11.64,11.64l-11.64,-11.64l11.64,-11.64Z" style="fill:none;stroke:#e7ebe5;stroke-width:1.25px;"/><path d="M34.865,141.982l11.64,11.64l-11.64,11.64l-11.64,-11.64l11.64,-11.64Z" style="fill:none;stroke:#e7ebe5;stroke-width:1.25px;"/><path d="M452.913,141.982l11.64,11.64l-11.64,11.64l-11.64,-11.64l11.64,-11.64Z" style="fill:none;stroke:#e7ebe5;stroke-width:1.25px;"/><path d="M870.962,141.982l11.64,11.64l-11.64,11.64l-11.64,-11.64l11.64,-11.64Z" style="fill:none;stroke:#e7ebe5;stroke-width:1.25px;"/><path d="M243.889,165.261l11.64,11.64l-11.64,11.64l-11.64,-11.64l11.64,-11.64Z" style="fill:none;stroke:#e7ebe5;stroke-width:1.25px;"/><path d="M661.938,165.261l11.64,11.64l-11.64,11.64l-11.64,-11.64l11.64,-11.64Z" style="fill:none;stroke:#e7ebe5;stroke-width:1.25px;"/><path d="M1079.986,165.261l11.64,11.64l-11.64,11.64l-11.64,-11.64l11.64,-11.64Z" style="fill:none;stroke:#e7ebe5;stroke-width:1.25px;"/><path d="M1265.786,165.261l11.64,11.64l-11.64,11.64l-11.64,-11.64l11.64,-11.64Z" style="fill:none;stroke:#e7ebe5;stroke-width:1.25px;"/><path d="M104.539,165.261l11.64,11.64l-11.64,11.64l-11.64,-11.64l11.64,-11.64Z" style="fill:none;stroke:#e7ebe5;stroke-width:1.25px;"/><path d="M522.588,165.261l11.64,11.64l-11.64,11.64l-11.64,-11.64l11.64,-11.64Z" style="fill:none;stroke:#e7ebe5;stroke-width:1.25px;"/><path d="M940.637,165.261l11.64,11.64l-11.64,11.64l-11.64,-11.64l11.64,-11.64Z" style="fill:none;stroke:#e7ebe5;stroke-width:1.25px;"/><path d="M313.564,141.982l11.64,11.64l-11.64,11.64l-11.64,-11.64l11.64,-11.64Z" style="fill:none;stroke:#e7ebe5;stroke-width:1.25px;"/><path d="M731.612,141.982l11.64,11.64l-11.64,11.64l-11.64,-11.64l11.64,-11.64Z" style="fill:none;stroke:#e7ebe5;stroke-width:1.25px;"/><path d="M1149.661,141.982l11.64,11.64l-11.64,11.64l-11.64,-11.64l11.64,-11.64Z" style="fill:none;stroke:#e7ebe5;stroke-width:1.25px;"/><path d="M1335.461,141.982l11.64,11.64l-11.64,11.64l-11.64,-11.64l11.64,-11.64Z" style="fill:none;stroke:#e7ebe5;stroke-width:1.25px;"/><path d="M174.214,141.982l11.64,11.64l-11.64,11.64l-11.64,-11.64l11.64,-11.64Z" style="fill:none;stroke:#e7ebe5;stroke-width:1.25px;"/><path d="M592.263,141.982l11.64,11.64l-11.64,11.64l-11.64,-11.64l11.64,-11.64Z" style="fill:none;stroke:#e7ebe5;stroke-width:1.25px;"/><path d="M1010.312,141.982l11.64,11.64l-11.64,11.64l-11.64,-11.64l11.64,-11.64Z" style="fill:none;stroke:#e7ebe5;stroke-width:1.25px;"/><path d="M383.239,165.261l11.64,11.64l-11.64,11.64l-11.64,-11.64l11.64,-11.64Z" style="fill:none;stroke:#e7ebe5;stroke-width:1.25px;"/><path d="M801.287,165.261l11.64,11.64l-11.64,11.64l-11.64,-11.64l11.64,-11.64Z" style="fill:none;stroke:#e7ebe5;stroke-width:1.25px;"/><path d="M1219.336,165.261l11.64,11.64l-11.64,11.64l-11.64,-11.64l11.64,-11.64Z" style="fill:none;stroke:#e7ebe5;stroke-width:1.25px;"/><path d="M1405.135,165.261l11.64,11.64l-11.64,11.64l-11.64,-11.64l11.64,-11.64Z" style="fill:none;stroke:#e7ebe5;stroke-width:1.25px;"/><path d="M58.09,165.261l11.64,11.64l-11.64,11.64l-11.64,-11.64l11.64,-11.64Z" style="fill:none;stroke:#e7ebe5;stroke-width:1.25px;"/><path d="M476.138,165.261l11.64,11.64l-11.64,11.64l-11.64,-11.64l11.64,-11.64Z" style="fill:none;stroke:#e7ebe5;stroke-width:1.25px;"/><path d="M894.187,165.261l11.64,11.64l-11.64,11.64l-11.64,-11.64l11.64,-11.64Z" style="fill:none;stroke:#e7ebe5;stroke-width:1.25px;"/><path d="M267.114,141.982l11.64,11.64l-11.64,11.64l-11.64,-11.64l11.64,-11.64Z" style="fill:none;stroke:#e7ebe5;stroke-width:1.25px;"/><path d="M685.163,141.982l11.64,11.64l-11.64,11.64l-11.64,-11.64l11.64,-11.64Z" style="fill:none;stroke:#e7ebe5;stroke-width:1.25px;"/><path d="M1103.211,141.982l11.64,11.64l-11.64,11.64l-11.64,-11.64l11.64,-11.64Z" style="fill:none;stroke:#e7ebe5;stroke-width:1.25px;"/><path d="M1289.011,141.982l11.64,11.64l-11.64,11.64l-11.64,-11.64l11.64,-11.64Z" style="fill:none;stroke:#e7ebe5;stroke-width:1.25px;"/><path d="M127.764,141.982l11.64,11.64l-11.64,11.64l-11.64,-11.64l11.64,-11.64Z" style="fill:none;stroke:#e7ebe5;stroke-width:1.25px;"/><path d="M545.813,141.982l11.64,11.64l-11.64,11.64l-11.64,-11.64l11.64,-11.64Z" style="fill:none;stroke:#e7ebe5;stroke-width:1.25px;"/><path d="M963.862,141.982l11.64,11.64l-11.64,11.64l-11.64,-11.64l11.64,-11.64Z" style="fill:none;stroke:#e7ebe5;stroke-width:1.25px;"/><path d="M336.789,165.261l11.64,11.64l-11.64,11.64l-11.64,-11.64l11.64,-11.64Z" style="fill:none;stroke:#e7ebe5;stroke-width:1.25px;"/><path d="M754.837,165.261l11.64,11.64l-11.64,11.64l-11.64,-11.64l11.64,-11.64Z" style="fill:none;stroke:#e7ebe5;stroke-width:1.25px;"/><path d="M1172.886,165.261l11.64,11.64l-11.64,11.64l-11.64,-11.64l11.64,-11.64Z" style="fill:none;stroke:#e7ebe5;stroke-width:1.25px;"/><path d="M1358.685,165.261l11.64,11.64l-11.64,11.64l-11.64,-11.64l11.64,-11.64Z" style="fill:none;stroke:#e7ebe5;stroke-width:1.25px;"/><path d="M197.439,165.261l11.64,11.64l-11.64,11.64l-11.64,-11.64l11.64,-11.64Z" style="fill:none;stroke:#e7ebe5;stroke-width:1.25px;"/><path d="M615.488,165.261l11.64,11.64l-11.64,11.64l-11.64,-11.64l11.64,-11.64Z" style="fill:none;stroke:#e7ebe5;stroke-width:1.25px;"/><path d="M1033.537,165.261l11.64,11.64l-11.64,11.64l-11.64,-11.64l11.64,-11.64Z" style="fill:none;stroke:#e7ebe5;stroke-width:1.25px;"/><path d="M406.463,141.982l11.64,11.64l-11.64,11.64l-11.64,-11.64l11.64,-11.64Z" style="fill:none;stroke:#e7ebe5;stroke-width:1.25px;"/><path d="M824.512,141.982l11.64,11.64l-11.64,11.64l-11.64,-11.64l11.64,-11.64Z" style="fill:none;stroke:#e7ebe5;stroke-width:1.25px;"/><path d="M1242.561,141.982l11.64,11.64l-11.64,11.64l-11.64,-11.64l11.64,-11.64Z" style="fill:none;stroke:#e7ebe5;stroke-width:1.25px;"/><path d="M1428.36,141.982l11.64,11.64l-11.64,11.64l-11.64,-11.64l11.64,-11.64Z" style="fill:none;stroke:#e7ebe5;stroke-width:1.25px;"/><path d="M11.64,211.459l11.64,11.64l-11.64,11.64l-11.64,-11.64l11.64,-11.64Z" style="fill:none;stroke:#e7ebe5;stroke-width:1.25px;"/><path d="M429.688,211.459l11.64,11.64l-11.64,11.64l-11.64,-11.64l11.64,-11.64Z" style="fill:none;stroke:#e7ebe5;stroke-width:1.25px;"/><path d="M847.737,211.459l11.64,11.64l-11.64,11.64l-11.64,-11.64l11.64,-11.64Z" style="fill:none;stroke:#e7ebe5;stroke-width:1.25px;"/><path d="M220.664,188.18l11.64,11.64l-11.64,11.64l-11.64,-11.64l11.64,-11.64Z" style="fill:none;stroke:#e7ebe5;stroke-width:1.25px;"/><path d="M638.713,188.18l11.64,11.64l-11.64,11.64l-11.64,-11.64l11.64,-11.64Z" style="fill:none;stroke:#e7ebe5;stroke-width:1.25px;"/><path d="M1056.761,188.18l11.64,11.64l-11.64,11.64l-11.64,-11.64l11.64,-11.64Z" style="fill:none;stroke:#e7ebe5;stroke-width:1.25px;"/><path d="M81.315,188.18l11.64,11.64l-11.64,11.64l-11.64,-11.64l11.64,-11.64Z" style="fill:none;stroke:#e7ebe5;stroke-width:1.25px;"/><path d="M499.363,188.18l11.64,11.64l-11.64,11.64l-11.64,-11.64l11.64,-11.64Z" style="fill:none;stroke:#e7ebe5;stroke-width:1.25px;"/><path d="M917.412,188.18l11.64,11.64l-11.64,11.64l-11.64,-11.64l11.64,-11.64Z" style="fill:none;stroke:#e7ebe5;stroke-width:1.25px;"/><path d="M290.339,211.459l11.64,11.64l-11.64,11.64l-11.64,-11.64l11.64,-11.64Z" style="fill:none;stroke:#e7ebe5;stroke-width:1.25px;"/><path d="M708.388,211.459l11.64,11.64l-11.64,11.64l-11.64,-11.64l11.64,-11.64Z" style="fill:none;stroke:#e7ebe5;stroke-width:1.25px;"/><path d="M1126.436,211.459l11.64,11.64l-11.64,11.64l-11.64,-11.64l11.64,-11.64Z" style="fill:none;stroke:#e7ebe5;stroke-width:1.25px;"/><path d="M1312.236,211.459l11.64,11.64l-11.64,11.64l-11.64,-11.64l11.64,-11.64Z" style="fill:none;stroke:#e7ebe5;stroke-width:1.25px;"/><path d="M150.989,211.459l11.64,11.64l-11.64,11.64l-11.64,-11.64l11.64,-11.64Z" style="fill:none;stroke:#e7ebe5;stroke-width:1.25px;"/><path d="M569.038,211.459l11.64,11.64l-11.64,11.64l-11.64,-11.64l11.64,-11.64Z" style="fill:none;stroke:#e7ebe5;stroke-width:1.25px;"/><path d="M987.087,211.459l11.64,11.64l-11.64,11.64l-11.64,-11.64l11.64,-11.64Z" style="fill:none;stroke:#e7ebe5;stroke-width:1.25px;"/><path d="M360.014,188.18l11.64,11.64l-11.64,11.64l-11.64,-11.64l11.64,-11.64Z" style="fill:none;stroke:#e7ebe5;stroke-width:1.25px;"/><path d="M778.062,188.18l11.64,11.64l-11.64,11.64l-11.64,-11.64l11.64,-11.64Z" style="fill:none;stroke:#e7ebe5;stroke-width:1.25px;"/><path d="M1196.111,188.18l11.64,11.64l-11.64,11.64l-11.64,-11.64l11.64,-11.64Z" style="fill:none;stroke:#e7ebe5;stroke-width:1.25px;"/><path d="M1381.91,188.18l11.64,11.64l-11.64,11.64l-11.64,-11.64l11.64,-11.64Z" style="fill:none;stroke:#e7ebe5;stroke-width:1.25px;"/><path d="M34.865,188.18l11.64,11.64l-11.64,11.64l-11.64,-11.64l11.64,-11.64Z" style="fill:none;stroke:#e7ebe5;stroke-width:1.25px;"/><path d="M452.913,188.18l11.64,11.64l-11.64,11.64l-11.64,-11.64l11.64,-11.64Z" style="fill:none;stroke:#e7ebe5;stroke-width:1.25px;"/><path d="M870.962,188.18l11.64,11.64l-11.64,11.64l-11.64,-11.64l11.64,-11.64Z" style="fill:none;stroke:#e7ebe5;stroke-width:1.25px;"/><path d="M243.889,211.459l11.64,11.64l-11.64,11.64l-11.64,-11.64l11.64,-11.64Z" style="fill:none;stroke:#e7ebe5;stroke-width:1.25px;"/><path d="M661.938,211.459l11.64,11.64l-11.64,11.64l-11.64,-11.64l11.64,-11.64Z" style="fill:none;stroke:#e7ebe5;stroke-width:1.25px;"/><path d="M1079.986,211.459l11.64,11.64l-11.64,11.64l-11.64,-11.64l11.64,-11.64Z" style="fill:none;stroke:#e7ebe5;stroke-width:1.25px;"/><path d="M1265.786,211.459l11.64,11.64l-11.64,11.64l-11.64,-11.64l11.64,-11.64Z" style="fill:none;stroke:#e7ebe5;stroke-width:1.25px;"/><path d="M104.539,211.459l11.64,11.64l-11.64,11.64l-11.64,-11.64l11.64,-11.64Z" style="fill:none;stroke:#e7ebe5;stroke-width:1.25px;"/><path d="M522.588,211.459l11.64,11.64l-11.64,11.64l-11.64,-11.64l11.64,-11.64Z" style="fill:none;stroke:#e7ebe5;stroke-width:1.25px;"/><path d="M940.637,211.459l11.64,11.64l-11.64,11.64l-11.64,-11.64l11.64,-11.64Z" style="fill:none;stroke:#e7ebe5;stroke-width:1.25px;"/><path d="M313.564,188.18l11.64,11.64l-11.64,11.64l-11.64,-11.64l11.64,-11.64Z" style="fill:none;stroke:#e7ebe5;stroke-width:1.25px;"/><path d="M731.612,188.18l11.64,11.64l-11.64,11.64l-11.64,-11.64l11.64,-11.64Z" style="fill:none;stroke:#e7ebe5;stroke-width:1.25px;"/><path d="M1149.661,188.18l11.64,11.64l-11.64,11.64l-11.64,-11.64l11.64,-11.64Z" style="fill:none;stroke:#e7ebe5;stroke-width:1.25px;"/><path d="M1335.461,188.18l11.64,11.64l-11.64,11.64l-11.64,-11.64l11.64,-11.64Z" style="fill:none;stroke:#e7ebe5;stroke-width:1.25px;"/><path d="M174.214,188.18l11.64,11.64l-11.64,11.64l-11.64,-11.64l11.64,-11.64Z" style="fill:none;stroke:#e7ebe5;stroke-width:1.25px;"/><path d="M592.263,188.18l11.64,11.64l-11.64,11.64l-11.64,-11.64l11.64,-11.64Z" style="fill:none;stroke:#e7ebe5;stroke-width:1.25px;"/><path d="M1010.312,188.18l11.64,11.64l-11.64,11.64l-11.64,-11.64l11.64,-11.64Z" style="fill:none;stroke:#e7ebe5;stroke-width:1.25px;"/><path d="M383.239,211.459l11.64,11.64l-11.64,11.64l-11.64,-11.64l11.64,-11.64Z" style="fill:none;stroke:#e7ebe5;stroke-width:1.25px;"/><path d="M801.287,211.459l11.64,11.64l-11.64,11.64l-11.64,-11.64l11.64,-11.64Z" style="fill:none;stroke:#e7ebe5;stroke-width:1.25px;"/><path d="M1219.336,211.459l11.64,11.64l-11.64,11.64l-11.64,-11.64l11.64,-11.64Z" style="fill:none;stroke:#e7ebe5;stroke-width:1.25px;"/><path d="M1405.135,211.459l11.64,11.64l-11.64,11.64l-11.64,-11.64l11.64,-11.64Z" style="fill:none;stroke:#e7ebe5;stroke-width:1.25px;"/><path d="M58.09,211.459l11.64,11.64l-11.64,11.64l-11.64,-11.64l11.64,-11.64Z" style="fill:none;stroke:#e7ebe5;stroke-width:1.25px;"/><path d="M476.138,211.459l11.64,11.64l-11.64,11.64l-11.64,-11.64l11.64,-11.64Z" style="fill:none;stroke:#e7ebe5;stroke-width:1.25px;"/><path d="M894.187,211.459l11.64,11.64l-11.64,11.64l-11.64,-11.64l11.64,-11.64Z" style="fill:none;stroke:#e7ebe5;stroke-width:1.25px;"/><path d="M267.114,188.18l11.64,11.64l-11.64,11.64l-11.64,-11.64l11.64,-11.64Z" style="fill:none;stroke:#e7ebe5;stroke-width:1.25px;"/><path d="M685.163,188.18l11.64,11.64l-11.64,11.64l-11.64,-11.64l11.64,-11.64Z" style="fill:none;stroke:#e7ebe5;stroke-width:1.25px;"/><path d="M1103.211,188.18l11.64,11.64l-11.64,11.64l-11.64,-11.64l11.64,-11.64Z" style="fill:none;stroke:#e7ebe5;stroke-width:1.25px;"/><path d="M1289.011,188.18l11.64,11.64l-11.64,11.64l-11.64,-11.64l11.64,-11.64Z" style="fill:none;stroke:#e7ebe5;stroke-width:1.25px;"/><path d="M127.764,188.18l11.64,11.64l-11.64,11.64l-11.64,-11.64l11.64,-11.64Z" style="fill:none;stroke:#e7ebe5;stroke-width:1.25px;"/><path d="M545.813,188.18l11.64,11.64l-11.64,11.64l-11.64,-11.64l11.64,-11.64Z" style="fill:none;stroke:#e7ebe5;stroke-width:1.25px;"/><path d="M963.862,188.18l11.64,11.64l-11.64,11.64l-11.64,-11.64l11.64,-11.64Z" style="fill:none;stroke:#e7ebe5;stroke-width:1.25px;"/><path d="M336.789,211.459l11.64,11.64l-11.64,11.64l-11.64,-11.64l11.64,-11.64Z" style="fill:none;stroke:#e7ebe5;stroke-width:1.25px;"/><path d="M754.837,211.459l11.64,11.64l-11.64,11.64l-11.64,-11.64l11.64,-11.64Z" style="fill:none;stroke:#e7ebe5;stroke-width:1.25px;"/><path d="M1172.886,211.459l11.64,11.64l-11.64,11.64l-11.64,-11.64l11.64,-11.64Z" style="fill:none;stroke:#e7ebe5;stroke-width:1.25px;"/><path d="M1358.685,211.459l11.64,11.64l-11.64,11.64l-11.64,-11.64l11.64,-11.64Z" style="fill:none;stroke:#e7ebe5;stroke-width:1.25px;"/><path d="M197.439,211.459l11.64,11.64l-11.64,11.64l-11.64,-11.64l11.64,-11.64Z" style="fill:none;stroke:#e7ebe5;stroke-width:1.25px;"/><path d="M615.488,211.459l11.64,11.64l-11.64,11.64l-11.64,-11.64l11.64,-11.64Z" style="fill:none;stroke:#e7ebe5;stroke-width:1.25px;"/><path d="M1033.537,211.459l11.64,11.64l-11.64,11.64l-11.64,-11.64l11.64,-11.64Z" style="fill:none;stroke:#e7ebe5;stroke-width:1.25px;"/><path d="M406.463,188.18l11.64,11.64l-11.64,11.64l-11.64,-11.64l11.64,-11.64Z" style="fill:none;stroke:#e7ebe5;stroke-width:1.25px;"/><path d="M824.512,188.18l11.64,11.64l-11.64,11.64l-11.64,-11.64l11.64,-11.64Z" style="fill:none;stroke:#e7ebe5;stroke-width:1.25px;"/><path d="M1242.561,188.18l11.64,11.64l-11.64,11.64l-11.64,-11.64l11.64,-11.64Z" style="fill:none;stroke:#e7ebe5;stroke-width:1.25px;"/><path d="M1428.36,188.18l11.64,11.64l-11.64,11.64l-11.64,-11.64l11.64,-11.64Z" style="fill:none;stroke:#e7ebe5;stroke-width:1.25px;"/><path d="M11.64,257.657l11.64,11.64l-11.64,11.64l-11.64,-11.64l11.64,-11.64Z" style="fill:none;stroke:#e7ebe5;stroke-width:1.25px;"/><path d="M429.688,257.657l11.64,11.64l-11.64,11.64l-11.64,-11.64l11.64,-11.64Z" style="fill:none;stroke:#e7ebe5;stroke-width:1.25px;"/><path d="M847.737,257.657l11.64,11.64l-11.64,11.64l-11.64,-11.64l11.64,-11.64Z" style="fill:none;stroke:#e7ebe5;stroke-width:1.25px;"/><path d="M220.664,234.378l11.64,11.64l-11.64,11.64l-11.64,-11.64l11.64,-11.64Z" style="fill:none;stroke:#e7ebe5;stroke-width:1.25px;"/><path d="M638.713,234.378l11.64,11.64l-11.64,11.64l-11.64,-11.64l11.64,-11.64Z" style="fill:none;stroke:#e7ebe5;stroke-width:1.25px;"/><path d="M1056.761,234.378l11.64,11.64l-11.64,11.64l-11.64,-11.64l11.64,-11.64Z" style="fill:none;stroke:#e7ebe5;stroke-width:1.25px;"/><path d="M81.315,234.378l11.64,11.64l-11.64,11.64l-11.64,-11.64l11.64,-11.64Z" style="fill:none;stroke:#e7ebe5;stroke-width:1.25px;"/><path d="M499.363,234.378l11.64,11.64l-11.64,11.64l-11.64,-11.64l11.64,-11.64Z" style="fill:none;stroke:#e7ebe5;stroke-width:1.25px;"/><path d="M917.412,234.378l11.64,11.64l-11.64,11.64l-11.64,-11.64l11.64,-11.64Z" style="fill:none;stroke:#e7ebe5;stroke-width:1.25px;"/><path d="M290.339,257.657l11.64,11.64l-11.64,11.64l-11.64,-11.64l11.64,-11.64Z" style="fill:none;stroke:#e7ebe5;stroke-width:1.25px;"/><path d="M708.388,257.657l11.64,11.64l-11.64,11.64l-11.64,-11.64l11.64,-11.64Z" style="fill:none;stroke:#e7ebe5;stroke-width:1.25px;"/><path d="M1126.436,257.657l11.64,11.64l-11.64,11.64l-11.64,-11.64l11.64,-11.64Z" style="fill:none;stroke:#e7ebe5;stroke-width:1.25px;"/><path d="M1312.236,257.657l11.64,11.64l-11.64,11.64l-11.64,-11.64l11.64,-11.64Z" style="fill:none;stroke:#e7ebe5;stroke-width:1.25px;"/><path d="M150.989,257.657l11.64,11.64l-11.64,11.64l-11.64,-11.64l11.64,-11.64Z" style="fill:none;stroke:#e7ebe5;stroke-width:1.25px;"/><path d="M569.038,257.657l11.64,11.64l-11.64,11.64l-11.64,-11.64l11.64,-11.64Z" style="fill:none;stroke:#e7ebe5;stroke-width:1.25px;"/><path d="M987.087,257.657l11.64,11.64l-11.64,11.64l-11.64,-11.64l11.64,-11.64Z" style="fill:none;stroke:#e7ebe5;stroke-width:1.25px;"/><path d="M360.014,234.378l11.64,11.64l-11.64,11.64l-11.64,-11.64l11.64,-11.64Z" style="fill:none;stroke:#e7ebe5;stroke-width:1.25px;"/><path d="M778.062,234.378l11.64,11.64l-11.64,11.64l-11.64,-11.64l11.64,-11.64Z" style="fill:none;stroke:#e7ebe5;stroke-width:1.25px;"/><path d="M1196.111,234.378l11.64,11.64l-11.64,11.64l-11.64,-11.64l11.64,-11.64Z" style="fill:none;stroke:#e7ebe5;stroke-width:1.25px;"/><path d="M1381.91,234.378l11.64,11.64l-11.64,11.64l-11.64,-11.64l11.64,-11.64Z" style="fill:none;stroke:#e7ebe5;stroke-width:1.25px;"/><path d="M34.865,234.378l11.64,11.64l-11.64,11.64l-11.64,-11.64l11.64,-11.64Z" style="fill:none;stroke:#e7ebe5;stroke-width:1.25px;"/><path d="M452.913,234.378l11.64,11.64l-11.64,11.64l-11.64,-11.64l11.64,-11.64Z" style="fill:none;stroke:#e7ebe5;stroke-width:1.25px;"/><path d="M870.962,234.378l11.64,11.64l-11.64,11.64l-11.64,-11.64l11.64,-11.64Z" style="fill:none;stroke:#e7ebe5;stroke-width:1.25px;"/><path d="M243.889,257.657l11.64,11.64l-11.64,11.64l-11.64,-11.64l11.64,-11.64Z" style="fill:none;stroke:#e7ebe5;stroke-width:1.25px;"/><path d="M661.938,257.657l11.64,11.64l-11.64,11.64l-11.64,-11.64l11.64,-11.64Z" style="fill:none;stroke:#e7ebe5;stroke-width:1.25px;"/><path d="M1079.986,257.657l11.64,11.64l-11.64,11.64l-11.64,-11.64l11.64,-11.64Z" style="fill:none;stroke:#e7ebe5;stroke-width:1.25px;"/><path d="M1265.786,257.657l11.64,11.64l-11.64,11.64l-11.64,-11.64l11.64,-11.64Z" style="fill:none;stroke:#e7ebe5;stroke-width:1.25px;"/><path d="M104.539,257.657l11.64,11.64l-11.64,11.64l-11.64,-11.64l11.64,-11.64Z" style="fill:none;stroke:#e7ebe5;stroke-width:1.25px;"/><path d="M522.588,257.657l11.64,11.64l-11.64,11.64l-11.64,-11.64l11.64,-11.64Z" style="fill:none;stroke:#e7ebe5;stroke-width:1.25px;"/><path d="M940.637,257.657l11.64,11.64l-11.64,11.64l-11.64,-11.64l11.64,-11.64Z" style="fill:none;stroke:#e7ebe5;stroke-width:1.25px;"/><path d="M313.564,234.378l11.64,11.64l-11.64,11.64l-11.64,-11.64l11.64,-11.64Z" style="fill:none;stroke:#e7ebe5;stroke-width:1.25px;"/><path d="M731.612,234.378l11.64,11.64l-11.64,11.64l-11.64,-11.64l11.64,-11.64Z" style="fill:none;stroke:#e7ebe5;stroke-width:1.25px;"/><path d="M1149.661,234.378l11.64,11.64l-11.64,11.64l-11.64,-11.64l11.64,-11.64Z" style="fill:none;stroke:#e7ebe5;stroke-width:1.25px;"/><path d="M1335.461,234.378l11.64,11.64l-11.64,11.64l-11.64,-11.64l11.64,-11.64Z" style="fill:none;stroke:#e7ebe5;stroke-width:1.25px;"/><path d="M174.214,234.378l11.64,11.64l-11.64,11.64l-11.64,-11.64l11.64,-11.64Z" style="fill:none;stroke:#e7ebe5;stroke-width:1.25px;"/><path d="M592.263,234.378l11.64,11.64l-11.64,11.64l-11.64,-11.64l11.64,-11.64Z" style="fill:none;stroke:#e7ebe5;stroke-width:1.25px;"/><path d="M1010.312,234.378l11.64,11.64l-11.64,11.64l-11.64,-11.64l11.64,-11.64Z" style="fill:none;stroke:#e7ebe5;stroke-width:1.25px;"/><path d="M383.239,257.657l11.64,11.64l-11.64,11.64l-11.64,-11.64l11.64,-11.64Z" style="fill:none;stroke:#e7ebe5;stroke-width:1.25px;"/><path d="M801.287,257.657l11.64,11.64l-11.64,11.64l-11.64,-11.64l11.64,-11.64Z" style="fill:none;stroke:#e7ebe5;stroke-width:1.25px;"/><path d="M1219.336,257.657l11.64,11.64l-11.64,11.64l-11.64,-11.64l11.64,-11.64Z" style="fill:none;stroke:#e7ebe5;stroke-width:1.25px;"/><path d="M1405.135,257.657l11.64,11.64l-11.64,11.64l-11.64,-11.64l11.64,-11.64Z" style="fill:none;stroke:#e7ebe5;stroke-width:1.25px;"/><path d="M58.09,257.657l11.64,11.64l-11.64,11.64l-11.64,-11.64l11.64,-11.64Z" style="fill:none;stroke:#e7ebe5;stroke-width:1.25px;"/><path d="M476.138,257.657l11.64,11.64l-11.64,11.64l-11.64,-11.64l11.64,-11.64Z" style="fill:none;stroke:#e7ebe5;stroke-width:1.25px;"/><path d="M894.187,257.657l11.64,11.64l-11.64,11.64l-11.64,-11.64l11.64,-11.64Z" style="fill:none;stroke:#e7ebe5;stroke-width:1.25px;"/><path d="M267.114,234.378l11.64,11.64l-11.64,11.64l-11.64,-11.64l11.64,-11.64Z" style="fill:none;stroke:#e7ebe5;stroke-width:1.25px;"/><path d="M685.163,234.378l11.64,11.64l-11.64,11.64l-11.64,-11.64l11.64,-11.64Z" style="fill:none;stroke:#e7ebe5;stroke-width:1.25px;"/><path d="M1103.211,234.378l11.64,11.64l-11.64,11.64l-11.64,-11.64l11.64,-11.64Z" style="fill:none;stroke:#e7ebe5;stroke-width:1.25px;"/><path d="M1289.011,234.378l11.64,11.64l-11.64,11.64l-11.64,-11.64l11.64,-11.64Z" style="fill:none;stroke:#e7ebe5;stroke-width:1.25px;"/><path d="M127.764,234.378l11.64,11.64l-11.64,11.64l-11.64,-11.64l11.64,-11.64Z" style="fill:none;stroke:#e7ebe5;stroke-width:1.25px;"/><path d="M545.813,234.378l11.64,11.64l-11.64,11.64l-11.64,-11.64l11.64,-11.64Z" style="fill:none;stroke:#e7ebe5;stroke-width:1.25px;"/><path d="M963.862,234.378l11.64,11.64l-11.64,11.64l-11.64,-11.64l11.64,-11.64Z" style="fill:none;stroke:#e7ebe5;stroke-width:1.25px;"/><path d="M336.789,257.657l11.64,11.64l-11.64,11.64l-11.64,-11.64l11.64,-11.64Z" style="fill:none;stroke:#e7ebe5;stroke-width:1.25px;"/><path d="M754.837,257.657l11.64,11.64l-11.64,11.64l-11.64,-11.64l11.64,-11.64Z" style="fill:none;stroke:#e7ebe5;stroke-width:1.25px;"/><path d="M1172.886,257.657l11.64,11.64l-11.64,11.64l-11.64,-11.64l11.64,-11.64Z" style="fill:none;stroke:#e7ebe5;stroke-width:1.25px;"/><path d="M1358.685,257.657l11.64,11.64l-11.64,11.64l-11.64,-11.64l11.64,-11.64Z" style="fill:none;stroke:#e7ebe5;stroke-width:1.25px;"/><path d="M197.439,257.657l11.64,11.64l-11.64,11.64l-11.64,-11.64l11.64,-11.64Z" style="fill:none;stroke:#e7ebe5;stroke-width:1.25px;"/><path d="M615.488,257.657l11.64,11.64l-11.64,11.64l-11.64,-11.64l11.64,-11.64Z" style="fill:none;stroke:#e7ebe5;stroke-width:1.25px;"/><path d="M1033.537,257.657l11.64,11.64l-11.64,11.64l-11.64,-11.64l11.64,-11.64Z" style="fill:none;stroke:#e7ebe5;stroke-width:1.25px;"/><path d="M406.463,234.378l11.64,11.64l-11.64,11.64l-11.64,-11.64l11.64,-11.64Z" style="fill:none;stroke:#e7ebe5;stroke-width:1.25px;"/><path d="M824.512,234.378l11.64,11.64l-11.64,11.64l-11.64,-11.64l11.64,-11.64Z" style="fill:none;stroke:#e7ebe5;stroke-width:1.25px;"/><path d="M1242.561,234.378l11.64,11.64l-11.64,11.64l-11.64,-11.64l11.64,-11.64Z" style="fill:none;stroke:#e7ebe5;stroke-width:1.25px;"/><path d="M1428.36,234.378l11.64,11.64l-11.64,11.64l-11.64,-11.64l11.64,-11.64Z" style="fill:none;stroke:#e7ebe5;stroke-width:1.25px;"/><path d="M11.64,303.856l11.64,11.64l-11.64,11.64l-11.64,-11.64l11.64,-11.64Z" style="fill:none;stroke:#e7ebe5;stroke-width:1.25px;"/><path d="M429.688,303.856l11.64,11.64l-11.64,11.64l-11.64,-11.64l11.64,-11.64Z" style="fill:none;stroke:#e7ebe5;stroke-width:1.25px;"/><path d="M847.737,303.856l11.64,11.64l-11.64,11.64l-11.64,-11.64l11.64,-11.64Z" style="fill:none;stroke:#e7ebe5;stroke-width:1.25px;"/><path d="M220.664,280.576l11.64,11.64l-11.64,11.64l-11.64,-11.64l11.64,-11.64Z" style="fill:none;stroke:#e7ebe5;stroke-width:1.25px;"/><path d="M638.713,280.576l11.64,11.64l-11.64,11.64l-11.64,-11.64l11.64,-11.64Z" style="fill:none;stroke:#e7ebe5;stroke-width:1.25px;"/><path d="M1056.761,280.576l11.64,11.64l-11.64,11.64l-11.64,-11.64l11.64,-11.64Z" style="fill:none;stroke:#e7ebe5;stroke-width:1.25px;"/><path d="M81.315,280.576l11.64,11.64l-11.64,11.64l-11.64,-11.64l11.64,-11.64Z" style="fill:none;stroke:#e7ebe5;stroke-width:1.25px;"/><path d="M499.363,280.576l11.64,11.64l-11.64,11.64l-11.64,-11.64l11.64,-11.64Z" style="fill:none;stroke:#e7ebe5;stroke-width:1.25px;"/><path d="M917.412,280.576l11.64,11.64l-11.64,11.64l-11.64,-11.64l11.64,-11.64Z" style="fill:none;stroke:#e7ebe5;stroke-width:1.25px;"/><path d="M290.339,303.856l11.64,11.64l-11.64,11.64l-11.64,-11.64l11.64,-11.64Z" style="fill:none;stroke:#e7ebe5;stroke-width:1.25px;"/><path d="M708.388,303.856l11.64,11.64l-11.64,11.64l-11.64,-11.64l11.64,-11.64Z" style="fill:none;stroke:#e7ebe5;stroke-width:1.25px;"/><path d="M1126.436,303.856l11.64,11.64l-11.64,11.64l-11.64,-11.64l11.64,-11.64Z" style="fill:none;stroke:#e7ebe5;stroke-width:1.25px;"/><path d="M1312.236,303.856l11.64,11.64l-11.64,11.64l-11.64,-11.64l11.64,-11.64Z" style="fill:none;stroke:#e7ebe5;stroke-width:1.25px;"/><path d="M150.989,303.856l11.64,11.64l-11.64,11.64l-11.64,-11.64l11.64,-11.64Z" style="fill:none;stroke:#e7ebe5;stroke-width:1.25px;"/><path d="M569.038,303.856l11.64,11.64l-11.64,11.64l-11.64,-11.64l11.64,-11.64Z" style="fill:none;stroke:#e7ebe5;stroke-width:1.25px;"/><path d="M987.087,303.856l11.64,11.64l-11.64,11.64l-11.64,-11.64l11.64,-11.64Z" style="fill:none;stroke:#e7ebe5;stroke-width:1.25px;"/><path d="M360.014,280.576l11.64,11.64l-11.64,11.64l-11.64,-11.64l11.64,-11.64Z" style="fill:none;stroke:#e7ebe5;stroke-width:1.25px;"/><path d="M778.062,280.576l11.64,11.64l-11.64,11.64l-11.64,-11.64l11.64,-11.64Z" style="fill:none;stroke:#e7ebe5;stroke-width:1.25px;"/><path d="M1196.111,280.576l11.64,11.64l-11.64,11.64l-11.64,-11.64l11.64,-11.64Z" style="fill:none;stroke:#e7ebe5;stroke-width:1.25px;"/><path d="M1381.91,280.576l11.64,11.64l-11.64,11.64l-11.64,-11.64l11.64,-11.64Z" style="fill:none;stroke:#e7ebe5;stroke-width:1.25px;"/><path d="M34.865,280.576l11.64,11.64l-11.64,11.64l-11.64,-11.64l11.64,-11.64Z" style="fill:none;stroke:#e7ebe5;stroke-width:1.25px;"/><path d="M452.913,280.576l11.64,11.64l-11.64,11.64l-11.64,-11.64l11.64,-11.64Z" style="fill:none;stroke:#e7ebe5;stroke-width:1.25px;"/><path d="M870.962,280.576l11.64,11.64l-11.64,11.64l-11.64,-11.64l11.64,-11.64Z" style="fill:none;stroke:#e7ebe5;stroke-width:1.25px;"/><path d="M243.889,303.856l11.64,11.64l-11.64,11.64l-11.64,-11.64l11.64,-11.64Z" style="fill:none;stroke:#e7ebe5;stroke-width:1.25px;"/><path d="M661.938,303.856l11.64,11.64l-11.64,11.64l-11.64,-11.64l11.64,-11.64Z" style="fill:none;stroke:#e7ebe5;stroke-width:1.25px;"/><path d="M1079.986,303.856l11.64,11.64l-11.64,11.64l-11.64,-11.64l11.64,-11.64Z" style="fill:none;stroke:#e7ebe5;stroke-width:1.25px;"/><path d="M1265.786,303.856l11.64,11.64l-11.64,11.64l-11.64,-11.64l11.64,-11.64Z" style="fill:none;stroke:#e7ebe5;stroke-width:1.25px;"/><path d="M104.539,303.856l11.64,11.64l-11.64,11.64l-11.64,-11.64l11.64,-11.64Z" style="fill:none;stroke:#e7ebe5;stroke-width:1.25px;"/><path d="M522.588,303.856l11.64,11.64l-11.64,11.64l-11.64,-11.64l11.64,-11.64Z" style="fill:none;stroke:#e7ebe5;stroke-width:1.25px;"/><path d="M940.637,303.856l11.64,11.64l-11.64,11.64l-11.64,-11.64l11.64,-11.64Z" style="fill:none;stroke:#e7ebe5;stroke-width:1.25px;"/><path d="M313.564,280.576l11.64,11.64l-11.64,11.64l-11.64,-11.64l11.64,-11.64Z" style="fill:none;stroke:#e7ebe5;stroke-width:1.25px;"/><path d="M731.612,280.576l11.64,11.64l-11.64,11.64l-11.64,-11.64l11.64,-11.64Z" style="fill:none;stroke:#e7ebe5;stroke-width:1.25px;"/><path d="M1149.661,280.576l11.64,11.64l-11.64,11.64l-11.64,-11.64l11.64,-11.64Z" style="fill:none;stroke:#e7ebe5;stroke-width:1.25px;"/><path d="M1335.461,280.576l11.64,11.64l-11.64,11.64l-11.64,-11.64l11.64,-11.64Z" style="fill:none;stroke:#e7ebe5;stroke-width:1.25px;"/><path d="M174.214,280.576l11.64,11.64l-11.64,11.64l-11.64,-11.64l11.64,-11.64Z" style="fill:none;stroke:#e7ebe5;stroke-width:1.25px;"/><path d="M592.263,280.576l11.64,11.64l-11.64,11.64l-11.64,-11.64l11.64,-11.64Z" style="fill:none;stroke:#e7ebe5;stroke-width:1.25px;"/><path d="M1010.312,280.576l11.64,11.64l-11.64,11.64l-11.64,-11.64l11.64,-11.64Z" style="fill:none;stroke:#e7ebe5;stroke-width:1.25px;"/><path d="M383.239,303.856l11.64,11.64l-11.64,11.64l-11.64,-11.64l11.64,-11.64Z" style="fill:none;stroke:#e7ebe5;stroke-width:1.25px;"/><path d="M801.287,303.856l11.64,11.64l-11.64,11.64l-11.64,-11.64l11.64,-11.64Z" style="fill:none;stroke:#e7ebe5;stroke-width:1.25px;"/><path d="M1219.336,303.856l11.64,11.64l-11.64,11.64l-11.64,-11.64l11.64,-11.64Z" style="fill:none;stroke:#e7ebe5;stroke-width:1.25px;"/><path d="M1405.135,303.856l11.64,11.64l-11.64,11.64l-11.64,-11.64l11.64,-11.64Z" style="fill:none;stroke:#e7ebe5;stroke-width:1.25px;"/><path d="M58.09,303.856l11.64,11.64l-11.64,11.64l-11.64,-11.64l11.64,-11.64Z" style="fill:none;stroke:#e7ebe5;stroke-width:1.25px;"/><path d="M476.138,303.856l11.64,11.64l-11.64,11.64l-11.64,-11.64l11.64,-11.64Z" style="fill:none;stroke:#e7ebe5;stroke-width:1.25px;"/><path d="M894.187,303.856l11.64,11.64l-11.64,11.64l-11.64,-11.64l11.64,-11.64Z" style="fill:none;stroke:#e7ebe5;stroke-width:1.25px;"/><path d="M267.114,280.576l11.64,11.64l-11.64,11.64l-11.64,-11.64l11.64,-11.64Z" style="fill:none;stroke:#e7ebe5;stroke-width:1.25px;"/><path d="M685.163,280.576l11.64,11.64l-11.64,11.64l-11.64,-11.64l11.64,-11.64Z" style="fill:none;stroke:#e7ebe5;stroke-width:1.25px;"/><path d="M1103.211,280.576l11.64,11.64l-11.64,11.64l-11.64,-11.64l11.64,-11.64Z" style="fill:none;stroke:#e7ebe5;stroke-width:1.25px;"/><path d="M1289.011,280.576l11.64,11.64l-11.64,11.64l-11.64,-11.64l11.64,-11.64Z" style="fill:none;stroke:#e7ebe5;stroke-width:1.25px;"/><path d="M127.764,280.576l11.64,11.64l-11.64,11.64l-11.64,-11.64l11.64,-11.64Z" style="fill:none;stroke:#e7ebe5;stroke-width:1.25px;"/><path d="M545.813,280.576l11.64,11.64l-11.64,11.64l-11.64,-11.64l11.64,-11.64Z" style="fill:none;stroke:#e7ebe5;stroke-width:1.25px;"/><path d="M963.862,280.576l11.64,11.64l-11.64,11.64l-11.64,-11.64l11.64,-11.64Z" style="fill:none;stroke:#e7ebe5;stroke-width:1.25px;"/><path d="M336.789,303.856l11.64,11.64l-11.64,11.64l-11.64,-11.64l11.64,-11.64Z" style="fill:none;stroke:#e7ebe5;stroke-width:1.25px;"/><path d="M754.837,303.856l11.64,11.64l-11.64,11.64l-11.64,-11.64l11.64,-11.64Z" style="fill:none;stroke:#e7ebe5;stroke-width:1.25px;"/><path d="M1172.886,303.856l11.64,11.64l-11.64,11.64l-11.64,-11.64l11.64,-11.64Z" style="fill:none;stroke:#e7ebe5;stroke-width:1.25px;"/><path d="M1358.685,303.856l11.64,11.64l-11.64,11.64l-11.64,-11.64l11.64,-11.64Z" style="fill:none;stroke:#e7ebe5;stroke-width:1.25px;"/><path d="M197.439,303.856l11.64,11.64l-11.64,11.64l-11.64,-11.64l11.64,-11.64Z" style="fill:none;stroke:#e7ebe5;stroke-width:1.25px;"/><path d="M615.488,303.856l11.64,11.64l-11.64,11.64l-11.64,-11.64l11.64,-11.64Z" style="fill:none;stroke:#e7ebe5;stroke-width:1.25px;"/><path d="M1033.537,303.856l11.64,11.64l-11.64,11.64l-11.64,-11.64l11.64,-11.64Z" style="fill:none;stroke:#e7ebe5;stroke-width:1.25px;"/><path d="M406.463,280.576l11.64,11.64l-11.64,11.64l-11.64,-11.64l11.64,-11.64Z" style="fill:none;stroke:#e7ebe5;stroke-width:1.25px;"/><path d="M824.512,280.576l11.64,11.64l-11.64,11.64l-11.64,-11.64l11.64,-11.64Z" style="fill:none;stroke:#e7ebe5;stroke-width:1.25px;"/><path d="M1242.561,280.576l11.64,11.64l-11.64,11.64l-11.64,-11.64l11.64,-11.64Z" style="fill:none;stroke:#e7ebe5;stroke-width:1.25px;"/><path d="M1428.36,280.576l11.64,11.64l-11.64,11.64l-11.64,-11.64l11.64,-11.64Z" style="fill:none;stroke:#e7ebe5;stroke-width:1.25px;"/><path d="M11.64,350.054l11.64,11.64l-11.64,11.64l-11.64,-11.64l11.64,-11.64Z" style="fill:none;stroke:#e7ebe5;stroke-width:1.25px;"/><path d="M429.688,350.054l11.64,11.64l-11.64,11.64l-11.64,-11.64l11.64,-11.64Z" style="fill:none;stroke:#e7ebe5;stroke-width:1.25px;"/><path d="M847.737,350.054l11.64,11.64l-11.64,11.64l-11.64,-11.64l11.64,-11.64Z" style="fill:none;stroke:#e7ebe5;stroke-width:1.25px;"/><path d="M220.664,326.774l11.64,11.64l-11.64,11.64l-11.64,-11.64l11.64,-11.64Z" style="fill:none;stroke:#e7ebe5;stroke-width:1.25px;"/><path d="M638.713,326.774l11.64,11.64l-11.64,11.64l-11.64,-11.64l11.64,-11.64Z" style="fill:none;stroke:#e7ebe5;stroke-width:1.25px;"/><path d="M1056.761,326.774l11.64,11.64l-11.64,11.64l-11.64,-11.64l11.64,-11.64Z" style="fill:none;stroke:#e7ebe5;stroke-width:1.25px;"/><path d="M81.315,326.774l11.64,11.64l-11.64,11.64l-11.64,-11.64l11.64,-11.64Z" style="fill:none;stroke:#e7ebe5;stroke-width:1.25px;"/><path d="M499.363,326.774l11.64,11.64l-11.64,11.64l-11.64,-11.64l11.64,-11.64Z" style="fill:none;stroke:#e7ebe5;stroke-width:1.25px;"/><path d="M917.412,326.774l11.64,11.64l-11.64,11.64l-11.64,-11.64l11.64,-11.64Z" style="fill:none;stroke:#e7ebe5;stroke-width:1.25px;"/><path d="M290.339,350.054l11.64,11.64l-11.64,11.64l-11.64,-11.64l11.64,-11.64Z" style="fill:none;stroke:#e7ebe5;stroke-width:1.25px;"/><path d="M708.388,350.054l11.64,11.64l-11.64,11.64l-11.64,-11.64l11.64,-11.64Z" style="fill:none;stroke:#e7ebe5;stroke-width:1.25px;"/><path d="M1126.436,350.054l11.64,11.64l-11.64,11.64l-11.64,-11.64l11.64,-11.64Z" style="fill:none;stroke:#e7ebe5;stroke-width:1.25px;"/><path d="M1312.236,350.054l11.64,11.64l-11.64,11.64l-11.64,-11.64l11.64,-11.64Z" style="fill:none;stroke:#e7ebe5;stroke-width:1.25px;"/><path d="M150.989,350.054l11.64,11.64l-11.64,11.64l-11.64,-11.64l11.64,-11.64Z" style="fill:none;stroke:#e7ebe5;stroke-width:1.25px;"/><path d="M569.038,350.054l11.64,11.64l-11.64,11.64l-11.64,-11.64l11.64,-11.64Z" style="fill:none;stroke:#e7ebe5;stroke-width:1.25px;"/><path d="M987.087,350.054l11.64,11.64l-11.64,11.64l-11.64,-11.64l11.64,-11.64Z" style="fill:none;stroke:#e7ebe5;stroke-width:1.25px;"/><path d="M360.014,326.774l11.64,11.64l-11.64,11.64l-11.64,-11.64l11.64,-11.64Z" style="fill:none;stroke:#e7ebe5;stroke-width:1.25px;"/><path d="M778.062,326.774l11.64,11.64l-11.64,11.64l-11.64,-11.64l11.64,-11.64Z" style="fill:none;stroke:#e7ebe5;stroke-width:1.25px;"/><path d="M1196.111,326.774l11.64,11.64l-11.64,11.64l-11.64,-11.64l11.64,-11.64Z" style="fill:none;stroke:#e7ebe5;stroke-width:1.25px;"/><path d="M1381.91,326.774l11.64,11.64l-11.64,11.64l-11.64,-11.64l11.64,-11.64Z" style="fill:none;stroke:#e7ebe5;stroke-width:1.25px;"/><path d="M34.865,326.774l11.64,11.64l-11.64,11.64l-11.64,-11.64l11.64,-11.64Z" style="fill:none;stroke:#e7ebe5;stroke-width:1.25px;"/><path d="M452.913,326.774l11.64,11.64l-11.64,11.64l-11.64,-11.64l11.64,-11.64Z" style="fill:none;stroke:#e7ebe5;stroke-width:1.25px;"/><path d="M870.962,326.774l11.64,11.64l-11.64,11.64l-11.64,-11.64l11.64,-11.64Z" style="fill:none;stroke:#e7ebe5;stroke-width:1.25px;"/><path d="M243.889,350.054l11.64,11.64l-11.64,11.64l-11.64,-11.64l11.64,-11.64Z" style="fill:none;stroke:#e7ebe5;stroke-width:1.25px;"/><path d="M661.938,350.054l11.64,11.64l-11.64,11.64l-11.64,-11.64l11.64,-11.64Z" style="fill:none;stroke:#e7ebe5;stroke-width:1.25px;"/><path d="M1079.986,350.054l11.64,11.64l-11.64,11.64l-11.64,-11.64l11.64,-11.64Z" style="fill:none;stroke:#e7ebe5;stroke-width:1.25px;"/><path d="M1265.786,350.054l11.64,11.64l-11.64,11.64l-11.64,-11.64l11.64,-11.64Z" style="fill:none;stroke:#e7ebe5;stroke-width:1.25px;"/><path d="M104.539,350.054l11.64,11.64l-11.64,11.64l-11.64,-11.64l11.64,-11.64Z" style="fill:none;stroke:#e7ebe5;stroke-width:1.25px;"/><path d="M522.588,350.054l11.64,11.64l-11.64,11.64l-11.64,-11.64l11.64,-11.64Z" style="fill:none;stroke:#e7ebe5;stroke-width:1.25px;"/><path d="M940.637,350.054l11.64,11.64l-11.64,11.64l-11.64,-11.64l11.64,-11.64Z" style="fill:none;stroke:#e7ebe5;stroke-width:1.25px;"/><path d="M313.564,326.774l11.64,11.64l-11.64,11.64l-11.64,-11.64l11.64,-11.64Z" style="fill:none;stroke:#e7ebe5;stroke-width:1.25px;"/><path d="M731.612,326.774l11.64,11.64l-11.64,11.64l-11.64,-11.64l11.64,-11.64Z" style="fill:none;stroke:#e7ebe5;stroke-width:1.25px;"/><path d="M1149.661,326.774l11.64,11.64l-11.64,11.64l-11.64,-11.64l11.64,-11.64Z" style="fill:none;stroke:#e7ebe5;stroke-width:1.25px;"/><path d="M1335.461,326.774l11.64,11.64l-11.64,11.64l-11.64,-11.64l11.64,-11.64Z" style="fill:none;stroke:#e7ebe5;stroke-width:1.25px;"/><path d="M174.214,326.774l11.64,11.64l-11.64,11.64l-11.64,-11.64l11.64,-11.64Z" style="fill:none;stroke:#e7ebe5;stroke-width:1.25px;"/><path d="M592.263,326.774l11.64,11.64l-11.64,11.64l-11.64,-11.64l11.64,-11.64Z" style="fill:none;stroke:#e7ebe5;stroke-width:1.25px;"/><path d="M1010.312,326.774l11.64,11.64l-11.64,11.64l-11.64,-11.64l11.64,-11.64Z" style="fill:none;stroke:#e7ebe5;stroke-width:1.25px;"/><path d="M383.239,350.054l11.64,11.64l-11.64,11.64l-11.64,-11.64l11.64,-11.64Z" style="fill:none;stroke:#e7ebe5;stroke-width:1.25px;"/><path d="M801.287,350.054l11.64,11.64l-11.64,11.64l-11.64,-11.64l11.64,-11.64Z" style="fill:none;stroke:#e7ebe5;stroke-width:1.25px;"/><path d="M1219.336,350.054l11.64,11.64l-11.64,11.64l-11.64,-11.64l11.64,-11.64Z" style="fill:none;stroke:#e7ebe5;stroke-width:1.25px;"/><path d="M1405.135,350.054l11.64,11.64l-11.64,11.64l-11.64,-11.64l11.64,-11.64Z" style="fill:none;stroke:#e7ebe5;stroke-width:1.25px;"/><path d="M58.09,350.054l11.64,11.64l-11.64,11.64l-11.64,-11.64l11.64,-11.64Z" style="fill:none;stroke:#e7ebe5;stroke-width:1.25px;"/><path d="M476.138,350.054l11.64,11.64l-11.64,11.64l-11.64,-11.64l11.64,-11.64Z" style="fill:none;stroke:#e7ebe5;stroke-width:1.25px;"/><path d="M894.187,350.054l11.64,11.64l-11.64,11.64l-11.64,-11.64l11.64,-11.64Z" style="fill:none;stroke:#e7ebe5;stroke-width:1.25px;"/><path d="M267.114,326.774l11.64,11.64l-11.64,11.64l-11.64,-11.64l11.64,-11.64Z" style="fill:none;stroke:#e7ebe5;stroke-width:1.25px;"/><path d="M685.163,326.774l11.64,11.64l-11.64,11.64l-11.64,-11.64l11.64,-11.64Z" style="fill:none;stroke:#e7ebe5;stroke-width:1.25px;"/><path d="M1103.211,326.774l11.64,11.64l-11.64,11.64l-11.64,-11.64l11.64,-11.64Z" style="fill:none;stroke:#e7ebe5;stroke-width:1.25px;"/><path d="M1289.011,326.774l11.64,11.64l-11.64,11.64l-11.64,-11.64l11.64,-11.64Z" style="fill:none;stroke:#e7ebe5;stroke-width:1.25px;"/><path d="M127.764,326.774l11.64,11.64l-11.64,11.64l-11.64,-11.64l11.64,-11.64Z" style="fill:none;stroke:#e7ebe5;stroke-width:1.25px;"/><path d="M545.813,326.774l11.64,11.64l-11.64,11.64l-11.64,-11.64l11.64,-11.64Z" style="fill:none;stroke:#e7ebe5;stroke-width:1.25px;"/><path d="M963.862,326.774l11.64,11.64l-11.64,11.64l-11.64,-11.64l11.64,-11.64Z" style="fill:none;stroke:#e7ebe5;stroke-width:1.25px;"/><path d="M336.789,350.054l11.64,11.64l-11.64,11.64l-11.64,-11.64l11.64,-11.64Z" style="fill:none;stroke:#e7ebe5;stroke-width:1.25px;"/><path d="M754.837,350.054l11.64,11.64l-11.64,11.64l-11.64,-11.64l11.64,-11.64Z" style="fill:none;stroke:#e7ebe5;stroke-width:1.25px;"/><path d="M1172.886,350.054l11.64,11.64l-11.64,11.64l-11.64,-11.64l11.64,-11.64Z" style="fill:none;stroke:#e7ebe5;stroke-width:1.25px;"/><path d="M1358.685,350.054l11.64,11.64l-11.64,11.64l-11.64,-11.64l11.64,-11.64Z" style="fill:none;stroke:#e7ebe5;stroke-width:1.25px;"/><path d="M197.439,350.054l11.64,11.64l-11.64,11.64l-11.64,-11.64l11.64,-11.64Z" style="fill:none;stroke:#e7ebe5;stroke-width:1.25px;"/><path d="M615.488,350.054l11.64,11.64l-11.64,11.64l-11.64,-11.64l11.64,-11.64Z" style="fill:none;stroke:#e7ebe5;stroke-width:1.25px;"/><path d="M1033.537,350.054l11.64,11.64l-11.64,11.64l-11.64,-11.64l11.64,-11.64Z" style="fill:none;stroke:#e7ebe5;stroke-width:1.25px;"/><path d="M406.463,326.774l11.64,11.64l-11.64,11.64l-11.64,-11.64l11.64,-11.64Z" style="fill:none;stroke:#e7ebe5;stroke-width:1.25px;"/><path d="M824.512,326.774l11.64,11.64l-11.64,11.64l-11.64,-11.64l11.64,-11.64Z" style="fill:none;stroke:#e7ebe5;stroke-width:1.25px;"/><path d="M1242.561,326.774l11.64,11.64l-11.64,11.64l-11.64,-11.64l11.64,-11.64Z" style="fill:none;stroke:#e7ebe5;stroke-width:1.25px;"/><path d="M1428.36,326.774l11.64,11.64l-11.64,11.64l-11.64,-11.64l11.64,-11.64Z" style="fill:none;stroke:#e7ebe5;stroke-width:1.25px;"/></g></g></svg>